<?xml version="1.0" encoding="UTF-8" standalone="no"?>
<!DOCTYPE svg PUBLIC "-//W3C//DTD SVG 1.1//EN"
 "http://www.w3.org/Graphics/SVG/1.1/DTD/svg11.dtd">
<!-- Generated by graphviz version 2.43.0 (0)
 -->
<!-- Title: Tree Pages: 1 -->
<svg width="1468pt" height="1147pt"
 viewBox="0.00 0.00 1468.00 1147.00" xmlns="http://www.w3.org/2000/svg" xmlns:xlink="http://www.w3.org/1999/xlink">
<g id="graph0" class="graph" transform="scale(1 1) rotate(0) translate(4 1143)">
<title>Tree</title>
<polygon fill="white" stroke="transparent" points="-4,4 -4,-1143 1464,-1143 1464,4 -4,4"/>
<!-- 0 -->
<g id="node1" class="node">
<title>0</title>
<polygon fill="#ffffff" stroke="black" points="1060.5,-1139 911.5,-1139 911.5,-1056 1060.5,-1056 1060.5,-1139"/>
<text text-anchor="middle" x="986" y="-1123.8" font-family="Helvetica,sans-Serif" font-size="14.00">sexo &lt;= 0.5</text>
<text text-anchor="middle" x="986" y="-1108.8" font-family="Helvetica,sans-Serif" font-size="14.00">gini = 0.5</text>
<text text-anchor="middle" x="986" y="-1093.8" font-family="Helvetica,sans-Serif" font-size="14.00">samples = 100.0%</text>
<text text-anchor="middle" x="986" y="-1078.8" font-family="Helvetica,sans-Serif" font-size="14.00">value = [0.5, 0.5]</text>
<text text-anchor="middle" x="986" y="-1063.8" font-family="Helvetica,sans-Serif" font-size="14.00">class = True</text>
</g>
<!-- 1 -->
<g id="node2" class="node">
<title>1</title>
<polygon fill="#c0e0f7" stroke="black" points="977,-1020 801,-1020 801,-937 977,-937 977,-1020"/>
<text text-anchor="middle" x="889" y="-1004.8" font-family="Helvetica,sans-Serif" font-size="14.00">artrite &lt;= 0.5</text>
<text text-anchor="middle" x="889" y="-989.8" font-family="Helvetica,sans-Serif" font-size="14.00">gini = 0.482</text>
<text text-anchor="middle" x="889" y="-974.8" font-family="Helvetica,sans-Serif" font-size="14.00">samples = 53.9%</text>
<text text-anchor="middle" x="889" y="-959.8" font-family="Helvetica,sans-Serif" font-size="14.00">value = [0.405, 0.595]</text>
<text text-anchor="middle" x="889" y="-944.8" font-family="Helvetica,sans-Serif" font-size="14.00">class = True</text>
</g>
<!-- 0&#45;&gt;1 -->
<g id="edge1" class="edge">
<title>0&#45;&gt;1</title>
<path fill="none" stroke="black" d="M952.35,-1055.91C944.82,-1046.83 936.77,-1037.12 929.02,-1027.77"/>
<polygon fill="black" stroke="black" points="931.67,-1025.49 922.59,-1020.02 926.28,-1029.95 931.67,-1025.49"/>
<text text-anchor="middle" x="920.27" y="-1041.21" font-family="Helvetica,sans-Serif" font-size="14.00">True</text>
</g>
<!-- 42 -->
<g id="node25" class="node">
<title>42</title>
<polygon fill="#f2c19d" stroke="black" points="1171,-1020 995,-1020 995,-937 1171,-937 1171,-1020"/>
<text text-anchor="middle" x="1083" y="-1004.8" font-family="Helvetica,sans-Serif" font-size="14.00">hipertensao &lt;= 0.5</text>
<text text-anchor="middle" x="1083" y="-989.8" font-family="Helvetica,sans-Serif" font-size="14.00">gini = 0.447</text>
<text text-anchor="middle" x="1083" y="-974.8" font-family="Helvetica,sans-Serif" font-size="14.00">samples = 46.1%</text>
<text text-anchor="middle" x="1083" y="-959.8" font-family="Helvetica,sans-Serif" font-size="14.00">value = [0.663, 0.337]</text>
<text text-anchor="middle" x="1083" y="-944.8" font-family="Helvetica,sans-Serif" font-size="14.00">class = False</text>
</g>
<!-- 0&#45;&gt;42 -->
<g id="edge24" class="edge">
<title>0&#45;&gt;42</title>
<path fill="none" stroke="black" d="M1019.65,-1055.91C1027.18,-1046.83 1035.23,-1037.12 1042.98,-1027.77"/>
<polygon fill="black" stroke="black" points="1045.72,-1029.95 1049.41,-1020.02 1040.33,-1025.49 1045.72,-1029.95"/>
<text text-anchor="middle" x="1051.73" y="-1041.21" font-family="Helvetica,sans-Serif" font-size="14.00">False</text>
</g>
<!-- 2 -->
<g id="node3" class="node">
<title>2</title>
<polygon fill="#cee7f9" stroke="black" points="783,-901 625,-901 625,-818 783,-818 783,-901"/>
<text text-anchor="middle" x="704" y="-885.8" font-family="Helvetica,sans-Serif" font-size="14.00">hipertensao &lt;= 0.5</text>
<text text-anchor="middle" x="704" y="-870.8" font-family="Helvetica,sans-Serif" font-size="14.00">gini = 0.49</text>
<text text-anchor="middle" x="704" y="-855.8" font-family="Helvetica,sans-Serif" font-size="14.00">samples = 49.8%</text>
<text text-anchor="middle" x="704" y="-840.8" font-family="Helvetica,sans-Serif" font-size="14.00">value = [0.43, 0.57]</text>
<text text-anchor="middle" x="704" y="-825.8" font-family="Helvetica,sans-Serif" font-size="14.00">class = True</text>
</g>
<!-- 1&#45;&gt;2 -->
<g id="edge2" class="edge">
<title>1&#45;&gt;2</title>
<path fill="none" stroke="black" d="M824.82,-936.91C809.32,-927.11 792.65,-916.56 776.79,-906.53"/>
<polygon fill="black" stroke="black" points="778.39,-903.41 768.07,-901.02 774.65,-909.32 778.39,-903.41"/>
</g>
<!-- 39 -->
<g id="node24" class="node">
<title>39</title>
<polygon fill="#6fb8ec" stroke="black" points="977,-893.5 801,-893.5 801,-825.5 977,-825.5 977,-893.5"/>
<text text-anchor="middle" x="889" y="-878.3" font-family="Helvetica,sans-Serif" font-size="14.00">gini = 0.338</text>
<text text-anchor="middle" x="889" y="-863.3" font-family="Helvetica,sans-Serif" font-size="14.00">samples = 4.1%</text>
<text text-anchor="middle" x="889" y="-848.3" font-family="Helvetica,sans-Serif" font-size="14.00">value = [0.215, 0.785]</text>
<text text-anchor="middle" x="889" y="-833.3" font-family="Helvetica,sans-Serif" font-size="14.00">class = True</text>
</g>
<!-- 1&#45;&gt;39 -->
<g id="edge23" class="edge">
<title>1&#45;&gt;39</title>
<path fill="none" stroke="black" d="M889,-936.91C889,-926.2 889,-914.62 889,-903.78"/>
<polygon fill="black" stroke="black" points="892.5,-903.67 889,-893.67 885.5,-903.67 892.5,-903.67"/>
</g>
<!-- 3 -->
<g id="node4" class="node">
<title>3</title>
<polygon fill="#e1f0fb" stroke="black" points="779,-782 621,-782 621,-699 779,-699 779,-782"/>
<text text-anchor="middle" x="700" y="-766.8" font-family="Helvetica,sans-Serif" font-size="14.00">tabagismo &lt;= 0.5</text>
<text text-anchor="middle" x="700" y="-751.8" font-family="Helvetica,sans-Serif" font-size="14.00">gini = 0.497</text>
<text text-anchor="middle" x="700" y="-736.8" font-family="Helvetica,sans-Serif" font-size="14.00">samples = 39.6%</text>
<text text-anchor="middle" x="700" y="-721.8" font-family="Helvetica,sans-Serif" font-size="14.00">value = [0.46, 0.54]</text>
<text text-anchor="middle" x="700" y="-706.8" font-family="Helvetica,sans-Serif" font-size="14.00">class = True</text>
</g>
<!-- 2&#45;&gt;3 -->
<g id="edge3" class="edge">
<title>2&#45;&gt;3</title>
<path fill="none" stroke="black" d="M702.61,-817.91C702.33,-809.56 702.02,-800.67 701.73,-792.02"/>
<polygon fill="black" stroke="black" points="705.23,-791.9 701.39,-782.02 698.23,-792.13 705.23,-791.9"/>
</g>
<!-- 32 -->
<g id="node23" class="node">
<title>32</title>
<polygon fill="#9ecff2" stroke="black" points="973,-774.5 797,-774.5 797,-706.5 973,-706.5 973,-774.5"/>
<text text-anchor="middle" x="885" y="-759.3" font-family="Helvetica,sans-Serif" font-size="14.00">gini = 0.447</text>
<text text-anchor="middle" x="885" y="-744.3" font-family="Helvetica,sans-Serif" font-size="14.00">samples = 10.2%</text>
<text text-anchor="middle" x="885" y="-729.3" font-family="Helvetica,sans-Serif" font-size="14.00">value = [0.337, 0.663]</text>
<text text-anchor="middle" x="885" y="-714.3" font-family="Helvetica,sans-Serif" font-size="14.00">class = True</text>
</g>
<!-- 2&#45;&gt;32 -->
<g id="edge22" class="edge">
<title>2&#45;&gt;32</title>
<path fill="none" stroke="black" d="M766.8,-817.91C785.75,-805.66 806.49,-792.25 825.23,-780.13"/>
<polygon fill="black" stroke="black" points="827.19,-783.04 833.69,-774.67 823.39,-777.16 827.19,-783.04"/>
</g>
<!-- 4 -->
<g id="node5" class="node">
<title>4</title>
<polygon fill="#f0f7fd" stroke="black" points="724.5,-663 517.5,-663 517.5,-580 724.5,-580 724.5,-663"/>
<text text-anchor="middle" x="621" y="-647.8" font-family="Helvetica,sans-Serif" font-size="14.00">hipercolesterolemia &lt;= 0.5</text>
<text text-anchor="middle" x="621" y="-632.8" font-family="Helvetica,sans-Serif" font-size="14.00">gini = 0.499</text>
<text text-anchor="middle" x="621" y="-617.8" font-family="Helvetica,sans-Serif" font-size="14.00">samples = 36.1%</text>
<text text-anchor="middle" x="621" y="-602.8" font-family="Helvetica,sans-Serif" font-size="14.00">value = [0.48, 0.52]</text>
<text text-anchor="middle" x="621" y="-587.8" font-family="Helvetica,sans-Serif" font-size="14.00">class = True</text>
</g>
<!-- 3&#45;&gt;4 -->
<g id="edge4" class="edge">
<title>3&#45;&gt;4</title>
<path fill="none" stroke="black" d="M672.59,-698.91C666.59,-690.01 660.17,-680.51 653.97,-671.33"/>
<polygon fill="black" stroke="black" points="656.86,-669.35 648.36,-663.02 651.06,-673.27 656.86,-669.35"/>
</g>
<!-- 31 -->
<g id="node22" class="node">
<title>31</title>
<polygon fill="#91c9f1" stroke="black" points="919,-655.5 743,-655.5 743,-587.5 919,-587.5 919,-655.5"/>
<text text-anchor="middle" x="831" y="-640.3" font-family="Helvetica,sans-Serif" font-size="14.00">gini = 0.426</text>
<text text-anchor="middle" x="831" y="-625.3" font-family="Helvetica,sans-Serif" font-size="14.00">samples = 3.5%</text>
<text text-anchor="middle" x="831" y="-610.3" font-family="Helvetica,sans-Serif" font-size="14.00">value = [0.308, 0.692]</text>
<text text-anchor="middle" x="831" y="-595.3" font-family="Helvetica,sans-Serif" font-size="14.00">class = True</text>
</g>
<!-- 3&#45;&gt;31 -->
<g id="edge21" class="edge">
<title>3&#45;&gt;31</title>
<path fill="none" stroke="black" d="M745.45,-698.91C758.67,-687.1 773.1,-674.22 786.27,-662.45"/>
<polygon fill="black" stroke="black" points="788.74,-664.94 793.86,-655.67 784.07,-659.72 788.74,-664.94"/>
</g>
<!-- 5 -->
<g id="node6" class="node">
<title>5</title>
<polygon fill="#fefeff" stroke="black" points="612,-544 436,-544 436,-461 612,-461 612,-544"/>
<text text-anchor="middle" x="524" y="-528.8" font-family="Helvetica,sans-Serif" font-size="14.00">class_renda &lt;= 0.5</text>
<text text-anchor="middle" x="524" y="-513.8" font-family="Helvetica,sans-Serif" font-size="14.00">gini = 0.5</text>
<text text-anchor="middle" x="524" y="-498.8" font-family="Helvetica,sans-Serif" font-size="14.00">samples = 32.5%</text>
<text text-anchor="middle" x="524" y="-483.8" font-family="Helvetica,sans-Serif" font-size="14.00">value = [0.498, 0.502]</text>
<text text-anchor="middle" x="524" y="-468.8" font-family="Helvetica,sans-Serif" font-size="14.00">class = True</text>
</g>
<!-- 4&#45;&gt;5 -->
<g id="edge5" class="edge">
<title>4&#45;&gt;5</title>
<path fill="none" stroke="black" d="M587.35,-579.91C579.82,-570.83 571.77,-561.12 564.02,-551.77"/>
<polygon fill="black" stroke="black" points="566.67,-549.49 557.59,-544.02 561.28,-553.95 566.67,-549.49"/>
</g>
<!-- 30 -->
<g id="node21" class="node">
<title>30</title>
<polygon fill="#a5d2f3" stroke="black" points="806,-536.5 630,-536.5 630,-468.5 806,-468.5 806,-536.5"/>
<text text-anchor="middle" x="718" y="-521.3" font-family="Helvetica,sans-Serif" font-size="14.00">gini = 0.456</text>
<text text-anchor="middle" x="718" y="-506.3" font-family="Helvetica,sans-Serif" font-size="14.00">samples = 3.6%</text>
<text text-anchor="middle" x="718" y="-491.3" font-family="Helvetica,sans-Serif" font-size="14.00">value = [0.352, 0.648]</text>
<text text-anchor="middle" x="718" y="-476.3" font-family="Helvetica,sans-Serif" font-size="14.00">class = True</text>
</g>
<!-- 4&#45;&gt;30 -->
<g id="edge20" class="edge">
<title>4&#45;&gt;30</title>
<path fill="none" stroke="black" d="M654.65,-579.91C664.17,-568.43 674.53,-555.94 684.06,-544.44"/>
<polygon fill="black" stroke="black" points="686.81,-546.6 690.5,-536.67 681.43,-542.13 686.81,-546.6"/>
</g>
<!-- 6 -->
<g id="node7" class="node">
<title>6</title>
<polygon fill="#e7f3fc" stroke="black" points="515,-425 339,-425 339,-342 515,-342 515,-425"/>
<text text-anchor="middle" x="427" y="-409.8" font-family="Helvetica,sans-Serif" font-size="14.00">estado_civil &lt;= 0.5</text>
<text text-anchor="middle" x="427" y="-394.8" font-family="Helvetica,sans-Serif" font-size="14.00">gini = 0.498</text>
<text text-anchor="middle" x="427" y="-379.8" font-family="Helvetica,sans-Serif" font-size="14.00">samples = 19.3%</text>
<text text-anchor="middle" x="427" y="-364.8" font-family="Helvetica,sans-Serif" font-size="14.00">value = [0.467, 0.533]</text>
<text text-anchor="middle" x="427" y="-349.8" font-family="Helvetica,sans-Serif" font-size="14.00">class = True</text>
</g>
<!-- 5&#45;&gt;6 -->
<g id="edge6" class="edge">
<title>5&#45;&gt;6</title>
<path fill="none" stroke="black" d="M490.35,-460.91C482.82,-451.83 474.77,-442.12 467.02,-432.77"/>
<polygon fill="black" stroke="black" points="469.67,-430.49 460.59,-425.02 464.28,-434.95 469.67,-430.49"/>
</g>
<!-- 21 -->
<g id="node14" class="node">
<title>21</title>
<polygon fill="#fae8dc" stroke="black" points="709,-425 533,-425 533,-342 709,-342 709,-425"/>
<text text-anchor="middle" x="621" y="-409.8" font-family="Helvetica,sans-Serif" font-size="14.00">obesidade &lt;= 0.5</text>
<text text-anchor="middle" x="621" y="-394.8" font-family="Helvetica,sans-Serif" font-size="14.00">gini = 0.495</text>
<text text-anchor="middle" x="621" y="-379.8" font-family="Helvetica,sans-Serif" font-size="14.00">samples = 13.2%</text>
<text text-anchor="middle" x="621" y="-364.8" font-family="Helvetica,sans-Serif" font-size="14.00">value = [0.549, 0.451]</text>
<text text-anchor="middle" x="621" y="-349.8" font-family="Helvetica,sans-Serif" font-size="14.00">class = False</text>
</g>
<!-- 5&#45;&gt;21 -->
<g id="edge13" class="edge">
<title>5&#45;&gt;21</title>
<path fill="none" stroke="black" d="M557.65,-460.91C565.18,-451.83 573.23,-442.12 580.98,-432.77"/>
<polygon fill="black" stroke="black" points="583.72,-434.95 587.41,-425.02 578.33,-430.49 583.72,-434.95"/>
</g>
<!-- 7 -->
<g id="node8" class="node">
<title>7</title>
<polygon fill="#cfe7f9" stroke="black" points="321,-298.5 145,-298.5 145,-230.5 321,-230.5 321,-298.5"/>
<text text-anchor="middle" x="233" y="-283.3" font-family="Helvetica,sans-Serif" font-size="14.00">gini = 0.491</text>
<text text-anchor="middle" x="233" y="-268.3" font-family="Helvetica,sans-Serif" font-size="14.00">samples = 8.0%</text>
<text text-anchor="middle" x="233" y="-253.3" font-family="Helvetica,sans-Serif" font-size="14.00">value = [0.431, 0.569]</text>
<text text-anchor="middle" x="233" y="-238.3" font-family="Helvetica,sans-Serif" font-size="14.00">class = True</text>
</g>
<!-- 6&#45;&gt;7 -->
<g id="edge7" class="edge">
<title>6&#45;&gt;7</title>
<path fill="none" stroke="black" d="M359.69,-341.91C339.29,-329.6 316.95,-316.13 296.79,-303.97"/>
<polygon fill="black" stroke="black" points="298.37,-300.83 287.99,-298.67 294.75,-306.83 298.37,-300.83"/>
</g>
<!-- 12 -->
<g id="node9" class="node">
<title>12</title>
<polygon fill="#fcfdff" stroke="black" points="515,-306 339,-306 339,-223 515,-223 515,-306"/>
<text text-anchor="middle" x="427" y="-290.8" font-family="Helvetica,sans-Serif" font-size="14.00">obesidade &lt;= 0.5</text>
<text text-anchor="middle" x="427" y="-275.8" font-family="Helvetica,sans-Serif" font-size="14.00">gini = 0.5</text>
<text text-anchor="middle" x="427" y="-260.8" font-family="Helvetica,sans-Serif" font-size="14.00">samples = 11.3%</text>
<text text-anchor="middle" x="427" y="-245.8" font-family="Helvetica,sans-Serif" font-size="14.00">value = [0.496, 0.504]</text>
<text text-anchor="middle" x="427" y="-230.8" font-family="Helvetica,sans-Serif" font-size="14.00">class = True</text>
</g>
<!-- 6&#45;&gt;12 -->
<g id="edge8" class="edge">
<title>6&#45;&gt;12</title>
<path fill="none" stroke="black" d="M427,-341.91C427,-333.65 427,-324.86 427,-316.3"/>
<polygon fill="black" stroke="black" points="430.5,-316.02 427,-306.02 423.5,-316.02 430.5,-316.02"/>
</g>
<!-- 13 -->
<g id="node10" class="node">
<title>13</title>
<polygon fill="#fef8f4" stroke="black" points="321,-187 145,-187 145,-104 321,-104 321,-187"/>
<text text-anchor="middle" x="233" y="-171.8" font-family="Helvetica,sans-Serif" font-size="14.00">cons_alcool &lt;= 0.5</text>
<text text-anchor="middle" x="233" y="-156.8" font-family="Helvetica,sans-Serif" font-size="14.00">gini = 0.5</text>
<text text-anchor="middle" x="233" y="-141.8" font-family="Helvetica,sans-Serif" font-size="14.00">samples = 8.8%</text>
<text text-anchor="middle" x="233" y="-126.8" font-family="Helvetica,sans-Serif" font-size="14.00">value = [0.514, 0.486]</text>
<text text-anchor="middle" x="233" y="-111.8" font-family="Helvetica,sans-Serif" font-size="14.00">class = False</text>
</g>
<!-- 12&#45;&gt;13 -->
<g id="edge9" class="edge">
<title>12&#45;&gt;13</title>
<path fill="none" stroke="black" d="M359.69,-222.91C343.29,-213.02 325.64,-202.37 308.87,-192.25"/>
<polygon fill="black" stroke="black" points="310.56,-189.19 300.19,-187.02 306.94,-195.18 310.56,-189.19"/>
</g>
<!-- 20 -->
<g id="node13" class="node">
<title>20</title>
<polygon fill="#d2e9f9" stroke="black" points="515,-179.5 339,-179.5 339,-111.5 515,-111.5 515,-179.5"/>
<text text-anchor="middle" x="427" y="-164.3" font-family="Helvetica,sans-Serif" font-size="14.00">gini = 0.492</text>
<text text-anchor="middle" x="427" y="-149.3" font-family="Helvetica,sans-Serif" font-size="14.00">samples = 2.4%</text>
<text text-anchor="middle" x="427" y="-134.3" font-family="Helvetica,sans-Serif" font-size="14.00">value = [0.436, 0.564]</text>
<text text-anchor="middle" x="427" y="-119.3" font-family="Helvetica,sans-Serif" font-size="14.00">class = True</text>
</g>
<!-- 12&#45;&gt;20 -->
<g id="edge12" class="edge">
<title>12&#45;&gt;20</title>
<path fill="none" stroke="black" d="M427,-222.91C427,-212.2 427,-200.62 427,-189.78"/>
<polygon fill="black" stroke="black" points="430.5,-189.67 427,-179.67 423.5,-189.67 430.5,-189.67"/>
</g>
<!-- 14 -->
<g id="node11" class="node">
<title>14</title>
<polygon fill="#fcefe5" stroke="black" points="176,-68 0,-68 0,0 176,0 176,-68"/>
<text text-anchor="middle" x="88" y="-52.8" font-family="Helvetica,sans-Serif" font-size="14.00">gini = 0.498</text>
<text text-anchor="middle" x="88" y="-37.8" font-family="Helvetica,sans-Serif" font-size="14.00">samples = 6.8%</text>
<text text-anchor="middle" x="88" y="-22.8" font-family="Helvetica,sans-Serif" font-size="14.00">value = [0.535, 0.465]</text>
<text text-anchor="middle" x="88" y="-7.8" font-family="Helvetica,sans-Serif" font-size="14.00">class = False</text>
</g>
<!-- 13&#45;&gt;14 -->
<g id="edge10" class="edge">
<title>13&#45;&gt;14</title>
<path fill="none" stroke="black" d="M179.01,-103.73C166.33,-94.15 152.83,-83.96 140.23,-74.44"/>
<polygon fill="black" stroke="black" points="142.18,-71.53 132.1,-68.3 137.97,-77.12 142.18,-71.53"/>
</g>
<!-- 19 -->
<g id="node12" class="node">
<title>19</title>
<polygon fill="#deeffb" stroke="black" points="370,-68 194,-68 194,0 370,0 370,-68"/>
<text text-anchor="middle" x="282" y="-52.8" font-family="Helvetica,sans-Serif" font-size="14.00">gini = 0.496</text>
<text text-anchor="middle" x="282" y="-37.8" font-family="Helvetica,sans-Serif" font-size="14.00">samples = 2.0%</text>
<text text-anchor="middle" x="282" y="-22.8" font-family="Helvetica,sans-Serif" font-size="14.00">value = [0.454, 0.546]</text>
<text text-anchor="middle" x="282" y="-7.8" font-family="Helvetica,sans-Serif" font-size="14.00">class = True</text>
</g>
<!-- 13&#45;&gt;19 -->
<g id="edge11" class="edge">
<title>13&#45;&gt;19</title>
<path fill="none" stroke="black" d="M251.25,-103.73C255.08,-95.15 259.14,-86.09 263,-77.46"/>
<polygon fill="black" stroke="black" points="266.21,-78.86 267.1,-68.3 259.82,-76 266.21,-78.86"/>
</g>
<!-- 22 -->
<g id="node15" class="node">
<title>22</title>
<polygon fill="#f9e3d2" stroke="black" points="709,-306 533,-306 533,-223 709,-223 709,-306"/>
<text text-anchor="middle" x="621" y="-290.8" font-family="Helvetica,sans-Serif" font-size="14.00">exerc_fisico &lt;= 0.5</text>
<text text-anchor="middle" x="621" y="-275.8" font-family="Helvetica,sans-Serif" font-size="14.00">gini = 0.492</text>
<text text-anchor="middle" x="621" y="-260.8" font-family="Helvetica,sans-Serif" font-size="14.00">samples = 11.1%</text>
<text text-anchor="middle" x="621" y="-245.8" font-family="Helvetica,sans-Serif" font-size="14.00">value = [0.563, 0.437]</text>
<text text-anchor="middle" x="621" y="-230.8" font-family="Helvetica,sans-Serif" font-size="14.00">class = False</text>
</g>
<!-- 21&#45;&gt;22 -->
<g id="edge14" class="edge">
<title>21&#45;&gt;22</title>
<path fill="none" stroke="black" d="M621,-341.91C621,-333.65 621,-324.86 621,-316.3"/>
<polygon fill="black" stroke="black" points="624.5,-316.02 621,-306.02 617.5,-316.02 624.5,-316.02"/>
</g>
<!-- 29 -->
<g id="node20" class="node">
<title>29</title>
<polygon fill="#f2f9fd" stroke="black" points="903,-298.5 727,-298.5 727,-230.5 903,-230.5 903,-298.5"/>
<text text-anchor="middle" x="815" y="-283.3" font-family="Helvetica,sans-Serif" font-size="14.00">gini = 0.499</text>
<text text-anchor="middle" x="815" y="-268.3" font-family="Helvetica,sans-Serif" font-size="14.00">samples = 2.1%</text>
<text text-anchor="middle" x="815" y="-253.3" font-family="Helvetica,sans-Serif" font-size="14.00">value = [0.483, 0.517]</text>
<text text-anchor="middle" x="815" y="-238.3" font-family="Helvetica,sans-Serif" font-size="14.00">class = True</text>
</g>
<!-- 21&#45;&gt;29 -->
<g id="edge19" class="edge">
<title>21&#45;&gt;29</title>
<path fill="none" stroke="black" d="M688.31,-341.91C708.71,-329.6 731.05,-316.13 751.21,-303.97"/>
<polygon fill="black" stroke="black" points="753.25,-306.83 760.01,-298.67 749.63,-300.83 753.25,-306.83"/>
</g>
<!-- 23 -->
<g id="node16" class="node">
<title>23</title>
<polygon fill="#fcf1e9" stroke="black" points="709,-187 533,-187 533,-104 709,-104 709,-187"/>
<text text-anchor="middle" x="621" y="-171.8" font-family="Helvetica,sans-Serif" font-size="14.00">cons_alcool &lt;= 0.5</text>
<text text-anchor="middle" x="621" y="-156.8" font-family="Helvetica,sans-Serif" font-size="14.00">gini = 0.498</text>
<text text-anchor="middle" x="621" y="-141.8" font-family="Helvetica,sans-Serif" font-size="14.00">samples = 4.8%</text>
<text text-anchor="middle" x="621" y="-126.8" font-family="Helvetica,sans-Serif" font-size="14.00">value = [0.529, 0.471]</text>
<text text-anchor="middle" x="621" y="-111.8" font-family="Helvetica,sans-Serif" font-size="14.00">class = False</text>
</g>
<!-- 22&#45;&gt;23 -->
<g id="edge15" class="edge">
<title>22&#45;&gt;23</title>
<path fill="none" stroke="black" d="M621,-222.91C621,-214.65 621,-205.86 621,-197.3"/>
<polygon fill="black" stroke="black" points="624.5,-197.02 621,-187.02 617.5,-197.02 624.5,-197.02"/>
</g>
<!-- 26 -->
<g id="node19" class="node">
<title>26</title>
<polygon fill="#f7d8c1" stroke="black" points="903,-179.5 727,-179.5 727,-111.5 903,-111.5 903,-179.5"/>
<text text-anchor="middle" x="815" y="-164.3" font-family="Helvetica,sans-Serif" font-size="14.00">gini = 0.483</text>
<text text-anchor="middle" x="815" y="-149.3" font-family="Helvetica,sans-Serif" font-size="14.00">samples = 6.3%</text>
<text text-anchor="middle" x="815" y="-134.3" font-family="Helvetica,sans-Serif" font-size="14.00">value = [0.592, 0.408]</text>
<text text-anchor="middle" x="815" y="-119.3" font-family="Helvetica,sans-Serif" font-size="14.00">class = False</text>
</g>
<!-- 22&#45;&gt;26 -->
<g id="edge18" class="edge">
<title>22&#45;&gt;26</title>
<path fill="none" stroke="black" d="M688.31,-222.91C708.71,-210.6 731.05,-197.13 751.21,-184.97"/>
<polygon fill="black" stroke="black" points="753.25,-187.83 760.01,-179.67 749.63,-181.83 753.25,-187.83"/>
</g>
<!-- 24 -->
<g id="node17" class="node">
<title>24</title>
<polygon fill="#fae6d8" stroke="black" points="661,-68 485,-68 485,0 661,0 661,-68"/>
<text text-anchor="middle" x="573" y="-52.8" font-family="Helvetica,sans-Serif" font-size="14.00">gini = 0.494</text>
<text text-anchor="middle" x="573" y="-37.8" font-family="Helvetica,sans-Serif" font-size="14.00">samples = 3.2%</text>
<text text-anchor="middle" x="573" y="-22.8" font-family="Helvetica,sans-Serif" font-size="14.00">value = [0.555, 0.445]</text>
<text text-anchor="middle" x="573" y="-7.8" font-family="Helvetica,sans-Serif" font-size="14.00">class = False</text>
</g>
<!-- 23&#45;&gt;24 -->
<g id="edge16" class="edge">
<title>23&#45;&gt;24</title>
<path fill="none" stroke="black" d="M603.13,-103.73C599.41,-95.24 595.48,-86.28 591.73,-77.73"/>
<polygon fill="black" stroke="black" points="594.82,-76.05 587.6,-68.3 588.41,-78.86 594.82,-76.05"/>
</g>
<!-- 25 -->
<g id="node18" class="node">
<title>25</title>
<polygon fill="#f3f9fd" stroke="black" points="855,-68 679,-68 679,0 855,0 855,-68"/>
<text text-anchor="middle" x="767" y="-52.8" font-family="Helvetica,sans-Serif" font-size="14.00">gini = 0.5</text>
<text text-anchor="middle" x="767" y="-37.8" font-family="Helvetica,sans-Serif" font-size="14.00">samples = 1.7%</text>
<text text-anchor="middle" x="767" y="-22.8" font-family="Helvetica,sans-Serif" font-size="14.00">value = [0.485, 0.515]</text>
<text text-anchor="middle" x="767" y="-7.8" font-family="Helvetica,sans-Serif" font-size="14.00">class = True</text>
</g>
<!-- 23&#45;&gt;25 -->
<g id="edge17" class="edge">
<title>23&#45;&gt;25</title>
<path fill="none" stroke="black" d="M675.37,-103.73C688.13,-94.15 701.72,-83.96 714.41,-74.44"/>
<polygon fill="black" stroke="black" points="716.7,-77.1 722.6,-68.3 712.5,-71.5 716.7,-77.1"/>
</g>
<!-- 43 -->
<g id="node26" class="node">
<title>43</title>
<polygon fill="#f0b78d" stroke="black" points="1171,-893.5 995,-893.5 995,-825.5 1171,-825.5 1171,-893.5"/>
<text text-anchor="middle" x="1083" y="-878.3" font-family="Helvetica,sans-Serif" font-size="14.00">gini = 0.419</text>
<text text-anchor="middle" x="1083" y="-863.3" font-family="Helvetica,sans-Serif" font-size="14.00">samples = 38.7%</text>
<text text-anchor="middle" x="1083" y="-848.3" font-family="Helvetica,sans-Serif" font-size="14.00">value = [0.701, 0.299]</text>
<text text-anchor="middle" x="1083" y="-833.3" font-family="Helvetica,sans-Serif" font-size="14.00">class = False</text>
</g>
<!-- 42&#45;&gt;43 -->
<g id="edge25" class="edge">
<title>42&#45;&gt;43</title>
<path fill="none" stroke="black" d="M1083,-936.91C1083,-926.2 1083,-914.62 1083,-903.78"/>
<polygon fill="black" stroke="black" points="1086.5,-903.67 1083,-893.67 1079.5,-903.67 1086.5,-903.67"/>
</g>
<!-- 74 -->
<g id="node27" class="node">
<title>74</title>
<polygon fill="#fef9f6" stroke="black" points="1396.5,-901 1189.5,-901 1189.5,-818 1396.5,-818 1396.5,-901"/>
<text text-anchor="middle" x="1293" y="-885.8" font-family="Helvetica,sans-Serif" font-size="14.00">hipercolesterolemia &lt;= 0.5</text>
<text text-anchor="middle" x="1293" y="-870.8" font-family="Helvetica,sans-Serif" font-size="14.00">gini = 0.5</text>
<text text-anchor="middle" x="1293" y="-855.8" font-family="Helvetica,sans-Serif" font-size="14.00">samples = 7.5%</text>
<text text-anchor="middle" x="1293" y="-840.8" font-family="Helvetica,sans-Serif" font-size="14.00">value = [0.512, 0.488]</text>
<text text-anchor="middle" x="1293" y="-825.8" font-family="Helvetica,sans-Serif" font-size="14.00">class = False</text>
</g>
<!-- 42&#45;&gt;74 -->
<g id="edge26" class="edge">
<title>42&#45;&gt;74</title>
<path fill="none" stroke="black" d="M1155.86,-936.91C1173.78,-926.92 1193.08,-916.17 1211.38,-905.98"/>
<polygon fill="black" stroke="black" points="1213.24,-908.95 1220.27,-901.02 1209.83,-902.83 1213.24,-908.95"/>
</g>
<!-- 75 -->
<g id="node28" class="node">
<title>75</title>
<polygon fill="#f9e2d1" stroke="black" points="1266,-782 1090,-782 1090,-699 1266,-699 1266,-782"/>
<text text-anchor="middle" x="1178" y="-766.8" font-family="Helvetica,sans-Serif" font-size="14.00">estado_civil &lt;= 0.5</text>
<text text-anchor="middle" x="1178" y="-751.8" font-family="Helvetica,sans-Serif" font-size="14.00">gini = 0.491</text>
<text text-anchor="middle" x="1178" y="-736.8" font-family="Helvetica,sans-Serif" font-size="14.00">samples = 5.5%</text>
<text text-anchor="middle" x="1178" y="-721.8" font-family="Helvetica,sans-Serif" font-size="14.00">value = [0.566, 0.434]</text>
<text text-anchor="middle" x="1178" y="-706.8" font-family="Helvetica,sans-Serif" font-size="14.00">class = False</text>
</g>
<!-- 74&#45;&gt;75 -->
<g id="edge27" class="edge">
<title>74&#45;&gt;75</title>
<path fill="none" stroke="black" d="M1253.1,-817.91C1244,-808.65 1234.25,-798.73 1224.89,-789.21"/>
<polygon fill="black" stroke="black" points="1227.33,-786.7 1217.83,-782.02 1222.34,-791.61 1227.33,-786.7"/>
</g>
<!-- 80 -->
<g id="node31" class="node">
<title>80</title>
<polygon fill="#bcdef6" stroke="black" points="1460,-774.5 1284,-774.5 1284,-706.5 1460,-706.5 1460,-774.5"/>
<text text-anchor="middle" x="1372" y="-759.3" font-family="Helvetica,sans-Serif" font-size="14.00">gini = 0.48</text>
<text text-anchor="middle" x="1372" y="-744.3" font-family="Helvetica,sans-Serif" font-size="14.00">samples = 2.0%</text>
<text text-anchor="middle" x="1372" y="-729.3" font-family="Helvetica,sans-Serif" font-size="14.00">value = [0.399, 0.601]</text>
<text text-anchor="middle" x="1372" y="-714.3" font-family="Helvetica,sans-Serif" font-size="14.00">class = True</text>
</g>
<!-- 74&#45;&gt;80 -->
<g id="edge30" class="edge">
<title>74&#45;&gt;80</title>
<path fill="none" stroke="black" d="M1320.41,-817.91C1328.01,-806.65 1336.27,-794.42 1343.91,-783.11"/>
<polygon fill="black" stroke="black" points="1346.91,-784.91 1349.61,-774.67 1341.11,-781 1346.91,-784.91"/>
</g>
<!-- 76 -->
<g id="node29" class="node">
<title>76</title>
<polygon fill="#d5eafa" stroke="black" points="1215,-655.5 1039,-655.5 1039,-587.5 1215,-587.5 1215,-655.5"/>
<text text-anchor="middle" x="1127" y="-640.3" font-family="Helvetica,sans-Serif" font-size="14.00">gini = 0.493</text>
<text text-anchor="middle" x="1127" y="-625.3" font-family="Helvetica,sans-Serif" font-size="14.00">samples = 1.5%</text>
<text text-anchor="middle" x="1127" y="-610.3" font-family="Helvetica,sans-Serif" font-size="14.00">value = [0.441, 0.559]</text>
<text text-anchor="middle" x="1127" y="-595.3" font-family="Helvetica,sans-Serif" font-size="14.00">class = True</text>
</g>
<!-- 75&#45;&gt;76 -->
<g id="edge28" class="edge">
<title>75&#45;&gt;76</title>
<path fill="none" stroke="black" d="M1160.31,-698.91C1155.54,-687.98 1150.38,-676.14 1145.57,-665.11"/>
<polygon fill="black" stroke="black" points="1148.66,-663.44 1141.46,-655.67 1142.24,-666.23 1148.66,-663.44"/>
</g>
<!-- 77 -->
<g id="node30" class="node">
<title>77</title>
<polygon fill="#f5cdb0" stroke="black" points="1409,-655.5 1233,-655.5 1233,-587.5 1409,-587.5 1409,-655.5"/>
<text text-anchor="middle" x="1321" y="-640.3" font-family="Helvetica,sans-Serif" font-size="14.00">gini = 0.469</text>
<text text-anchor="middle" x="1321" y="-625.3" font-family="Helvetica,sans-Serif" font-size="14.00">samples = 4.0%</text>
<text text-anchor="middle" x="1321" y="-610.3" font-family="Helvetica,sans-Serif" font-size="14.00">value = [0.625, 0.375]</text>
<text text-anchor="middle" x="1321" y="-595.3" font-family="Helvetica,sans-Serif" font-size="14.00">class = False</text>
</g>
<!-- 75&#45;&gt;77 -->
<g id="edge29" class="edge">
<title>75&#45;&gt;77</title>
<path fill="none" stroke="black" d="M1227.61,-698.91C1242.18,-686.99 1258.09,-673.98 1272.58,-662.12"/>
<polygon fill="black" stroke="black" points="1274.94,-664.71 1280.46,-655.67 1270.51,-659.29 1274.94,-664.71"/>
</g>
<!-- \n -->
<g id="node32" class="node">
<title>\n</title>
<polygon fill="black" stroke="black" points="1132,-1115.5 1078,-1115.5 1078,-1079.5 1132,-1079.5 1132,-1115.5"/>
</g>
</g>
</svg>
