<?xml version="1.0" encoding="UTF-8" standalone="no"?>
<!DOCTYPE svg PUBLIC "-//W3C//DTD SVG 1.1//EN"
 "http://www.w3.org/Graphics/SVG/1.1/DTD/svg11.dtd">
<!-- Generated by graphviz version 2.43.0 (0)
 -->
<!-- Title: Tree Pages: 1 -->
<svg width="1323pt" height="1266pt"
 viewBox="0.00 0.00 1323.00 1266.00" xmlns="http://www.w3.org/2000/svg" xmlns:xlink="http://www.w3.org/1999/xlink">
<g id="graph0" class="graph" transform="scale(1 1) rotate(0) translate(4 1262)">
<title>Tree</title>
<polygon fill="white" stroke="transparent" points="-4,4 -4,-1262 1319,-1262 1319,4 -4,4"/>
<!-- 0 -->
<g id="node1" class="node">
<title>0</title>
<polygon fill="#ffffff" stroke="black" points="915.5,-1258 766.5,-1258 766.5,-1175 915.5,-1175 915.5,-1258"/>
<text text-anchor="middle" x="841" y="-1242.8" font-family="Helvetica,sans-Serif" font-size="14.00">sexo &lt;= 0.5</text>
<text text-anchor="middle" x="841" y="-1227.8" font-family="Helvetica,sans-Serif" font-size="14.00">gini = 0.5</text>
<text text-anchor="middle" x="841" y="-1212.8" font-family="Helvetica,sans-Serif" font-size="14.00">samples = 100.0%</text>
<text text-anchor="middle" x="841" y="-1197.8" font-family="Helvetica,sans-Serif" font-size="14.00">value = [0.5, 0.5]</text>
<text text-anchor="middle" x="841" y="-1182.8" font-family="Helvetica,sans-Serif" font-size="14.00">class = True</text>
</g>
<!-- 1 -->
<g id="node2" class="node">
<title>1</title>
<polygon fill="#c0e0f7" stroke="black" points="832,-1139 656,-1139 656,-1056 832,-1056 832,-1139"/>
<text text-anchor="middle" x="744" y="-1123.8" font-family="Helvetica,sans-Serif" font-size="14.00">artrite &lt;= 0.5</text>
<text text-anchor="middle" x="744" y="-1108.8" font-family="Helvetica,sans-Serif" font-size="14.00">gini = 0.482</text>
<text text-anchor="middle" x="744" y="-1093.8" font-family="Helvetica,sans-Serif" font-size="14.00">samples = 53.9%</text>
<text text-anchor="middle" x="744" y="-1078.8" font-family="Helvetica,sans-Serif" font-size="14.00">value = [0.405, 0.595]</text>
<text text-anchor="middle" x="744" y="-1063.8" font-family="Helvetica,sans-Serif" font-size="14.00">class = True</text>
</g>
<!-- 0&#45;&gt;1 -->
<g id="edge1" class="edge">
<title>0&#45;&gt;1</title>
<path fill="none" stroke="black" d="M807.35,-1174.91C799.82,-1165.83 791.77,-1156.12 784.02,-1146.77"/>
<polygon fill="black" stroke="black" points="786.67,-1144.49 777.59,-1139.02 781.28,-1148.95 786.67,-1144.49"/>
<text text-anchor="middle" x="775.27" y="-1160.21" font-family="Helvetica,sans-Serif" font-size="14.00">True</text>
</g>
<!-- 42 -->
<g id="node27" class="node">
<title>42</title>
<polygon fill="#f2c19d" stroke="black" points="1026,-1139 850,-1139 850,-1056 1026,-1056 1026,-1139"/>
<text text-anchor="middle" x="938" y="-1123.8" font-family="Helvetica,sans-Serif" font-size="14.00">hipertensao &lt;= 0.5</text>
<text text-anchor="middle" x="938" y="-1108.8" font-family="Helvetica,sans-Serif" font-size="14.00">gini = 0.447</text>
<text text-anchor="middle" x="938" y="-1093.8" font-family="Helvetica,sans-Serif" font-size="14.00">samples = 46.1%</text>
<text text-anchor="middle" x="938" y="-1078.8" font-family="Helvetica,sans-Serif" font-size="14.00">value = [0.663, 0.337]</text>
<text text-anchor="middle" x="938" y="-1063.8" font-family="Helvetica,sans-Serif" font-size="14.00">class = False</text>
</g>
<!-- 0&#45;&gt;42 -->
<g id="edge26" class="edge">
<title>0&#45;&gt;42</title>
<path fill="none" stroke="black" d="M874.65,-1174.91C882.18,-1165.83 890.23,-1156.12 897.98,-1146.77"/>
<polygon fill="black" stroke="black" points="900.72,-1148.95 904.41,-1139.02 895.33,-1144.49 900.72,-1148.95"/>
<text text-anchor="middle" x="906.73" y="-1160.21" font-family="Helvetica,sans-Serif" font-size="14.00">False</text>
</g>
<!-- 2 -->
<g id="node3" class="node">
<title>2</title>
<polygon fill="#cee7f9" stroke="black" points="638,-1020 480,-1020 480,-937 638,-937 638,-1020"/>
<text text-anchor="middle" x="559" y="-1004.8" font-family="Helvetica,sans-Serif" font-size="14.00">hipertensao &lt;= 0.5</text>
<text text-anchor="middle" x="559" y="-989.8" font-family="Helvetica,sans-Serif" font-size="14.00">gini = 0.49</text>
<text text-anchor="middle" x="559" y="-974.8" font-family="Helvetica,sans-Serif" font-size="14.00">samples = 49.8%</text>
<text text-anchor="middle" x="559" y="-959.8" font-family="Helvetica,sans-Serif" font-size="14.00">value = [0.43, 0.57]</text>
<text text-anchor="middle" x="559" y="-944.8" font-family="Helvetica,sans-Serif" font-size="14.00">class = True</text>
</g>
<!-- 1&#45;&gt;2 -->
<g id="edge2" class="edge">
<title>1&#45;&gt;2</title>
<path fill="none" stroke="black" d="M679.82,-1055.91C664.32,-1046.11 647.65,-1035.56 631.79,-1025.53"/>
<polygon fill="black" stroke="black" points="633.39,-1022.41 623.07,-1020.02 629.65,-1028.32 633.39,-1022.41"/>
</g>
<!-- 39 -->
<g id="node26" class="node">
<title>39</title>
<polygon fill="#6fb8ec" stroke="black" points="832,-1012.5 656,-1012.5 656,-944.5 832,-944.5 832,-1012.5"/>
<text text-anchor="middle" x="744" y="-997.3" font-family="Helvetica,sans-Serif" font-size="14.00">gini = 0.338</text>
<text text-anchor="middle" x="744" y="-982.3" font-family="Helvetica,sans-Serif" font-size="14.00">samples = 4.1%</text>
<text text-anchor="middle" x="744" y="-967.3" font-family="Helvetica,sans-Serif" font-size="14.00">value = [0.215, 0.785]</text>
<text text-anchor="middle" x="744" y="-952.3" font-family="Helvetica,sans-Serif" font-size="14.00">class = True</text>
</g>
<!-- 1&#45;&gt;39 -->
<g id="edge25" class="edge">
<title>1&#45;&gt;39</title>
<path fill="none" stroke="black" d="M744,-1055.91C744,-1045.2 744,-1033.62 744,-1022.78"/>
<polygon fill="black" stroke="black" points="747.5,-1022.67 744,-1012.67 740.5,-1022.67 747.5,-1022.67"/>
</g>
<!-- 3 -->
<g id="node4" class="node">
<title>3</title>
<polygon fill="#e1f0fb" stroke="black" points="634,-901 476,-901 476,-818 634,-818 634,-901"/>
<text text-anchor="middle" x="555" y="-885.8" font-family="Helvetica,sans-Serif" font-size="14.00">tabagismo &lt;= 0.5</text>
<text text-anchor="middle" x="555" y="-870.8" font-family="Helvetica,sans-Serif" font-size="14.00">gini = 0.497</text>
<text text-anchor="middle" x="555" y="-855.8" font-family="Helvetica,sans-Serif" font-size="14.00">samples = 39.6%</text>
<text text-anchor="middle" x="555" y="-840.8" font-family="Helvetica,sans-Serif" font-size="14.00">value = [0.46, 0.54]</text>
<text text-anchor="middle" x="555" y="-825.8" font-family="Helvetica,sans-Serif" font-size="14.00">class = True</text>
</g>
<!-- 2&#45;&gt;3 -->
<g id="edge3" class="edge">
<title>2&#45;&gt;3</title>
<path fill="none" stroke="black" d="M557.61,-936.91C557.33,-928.56 557.02,-919.67 556.73,-911.02"/>
<polygon fill="black" stroke="black" points="560.23,-910.9 556.39,-901.02 553.23,-911.13 560.23,-910.9"/>
</g>
<!-- 32 -->
<g id="node25" class="node">
<title>32</title>
<polygon fill="#9ecff2" stroke="black" points="828,-893.5 652,-893.5 652,-825.5 828,-825.5 828,-893.5"/>
<text text-anchor="middle" x="740" y="-878.3" font-family="Helvetica,sans-Serif" font-size="14.00">gini = 0.447</text>
<text text-anchor="middle" x="740" y="-863.3" font-family="Helvetica,sans-Serif" font-size="14.00">samples = 10.2%</text>
<text text-anchor="middle" x="740" y="-848.3" font-family="Helvetica,sans-Serif" font-size="14.00">value = [0.337, 0.663]</text>
<text text-anchor="middle" x="740" y="-833.3" font-family="Helvetica,sans-Serif" font-size="14.00">class = True</text>
</g>
<!-- 2&#45;&gt;32 -->
<g id="edge24" class="edge">
<title>2&#45;&gt;32</title>
<path fill="none" stroke="black" d="M621.8,-936.91C640.75,-924.66 661.49,-911.25 680.23,-899.13"/>
<polygon fill="black" stroke="black" points="682.19,-902.04 688.69,-893.67 678.39,-896.16 682.19,-902.04"/>
</g>
<!-- 4 -->
<g id="node5" class="node">
<title>4</title>
<polygon fill="#f0f7fd" stroke="black" points="579.5,-782 372.5,-782 372.5,-699 579.5,-699 579.5,-782"/>
<text text-anchor="middle" x="476" y="-766.8" font-family="Helvetica,sans-Serif" font-size="14.00">hipercolesterolemia &lt;= 0.5</text>
<text text-anchor="middle" x="476" y="-751.8" font-family="Helvetica,sans-Serif" font-size="14.00">gini = 0.499</text>
<text text-anchor="middle" x="476" y="-736.8" font-family="Helvetica,sans-Serif" font-size="14.00">samples = 36.1%</text>
<text text-anchor="middle" x="476" y="-721.8" font-family="Helvetica,sans-Serif" font-size="14.00">value = [0.48, 0.52]</text>
<text text-anchor="middle" x="476" y="-706.8" font-family="Helvetica,sans-Serif" font-size="14.00">class = True</text>
</g>
<!-- 3&#45;&gt;4 -->
<g id="edge4" class="edge">
<title>3&#45;&gt;4</title>
<path fill="none" stroke="black" d="M527.59,-817.91C521.59,-809.01 515.17,-799.51 508.97,-790.33"/>
<polygon fill="black" stroke="black" points="511.86,-788.35 503.36,-782.02 506.06,-792.27 511.86,-788.35"/>
</g>
<!-- 31 -->
<g id="node24" class="node">
<title>31</title>
<polygon fill="#91c9f1" stroke="black" points="774,-774.5 598,-774.5 598,-706.5 774,-706.5 774,-774.5"/>
<text text-anchor="middle" x="686" y="-759.3" font-family="Helvetica,sans-Serif" font-size="14.00">gini = 0.426</text>
<text text-anchor="middle" x="686" y="-744.3" font-family="Helvetica,sans-Serif" font-size="14.00">samples = 3.5%</text>
<text text-anchor="middle" x="686" y="-729.3" font-family="Helvetica,sans-Serif" font-size="14.00">value = [0.308, 0.692]</text>
<text text-anchor="middle" x="686" y="-714.3" font-family="Helvetica,sans-Serif" font-size="14.00">class = True</text>
</g>
<!-- 3&#45;&gt;31 -->
<g id="edge23" class="edge">
<title>3&#45;&gt;31</title>
<path fill="none" stroke="black" d="M600.45,-817.91C613.67,-806.1 628.1,-793.22 641.27,-781.45"/>
<polygon fill="black" stroke="black" points="643.74,-783.94 648.86,-774.67 639.07,-778.72 643.74,-783.94"/>
</g>
<!-- 5 -->
<g id="node6" class="node">
<title>5</title>
<polygon fill="#fefeff" stroke="black" points="467,-663 291,-663 291,-580 467,-580 467,-663"/>
<text text-anchor="middle" x="379" y="-647.8" font-family="Helvetica,sans-Serif" font-size="14.00">class_renda &lt;= 0.5</text>
<text text-anchor="middle" x="379" y="-632.8" font-family="Helvetica,sans-Serif" font-size="14.00">gini = 0.5</text>
<text text-anchor="middle" x="379" y="-617.8" font-family="Helvetica,sans-Serif" font-size="14.00">samples = 32.5%</text>
<text text-anchor="middle" x="379" y="-602.8" font-family="Helvetica,sans-Serif" font-size="14.00">value = [0.498, 0.502]</text>
<text text-anchor="middle" x="379" y="-587.8" font-family="Helvetica,sans-Serif" font-size="14.00">class = True</text>
</g>
<!-- 4&#45;&gt;5 -->
<g id="edge5" class="edge">
<title>4&#45;&gt;5</title>
<path fill="none" stroke="black" d="M442.35,-698.91C434.82,-689.83 426.77,-680.12 419.02,-670.77"/>
<polygon fill="black" stroke="black" points="421.67,-668.49 412.59,-663.02 416.28,-672.95 421.67,-668.49"/>
</g>
<!-- 30 -->
<g id="node23" class="node">
<title>30</title>
<polygon fill="#a5d2f3" stroke="black" points="661,-655.5 485,-655.5 485,-587.5 661,-587.5 661,-655.5"/>
<text text-anchor="middle" x="573" y="-640.3" font-family="Helvetica,sans-Serif" font-size="14.00">gini = 0.456</text>
<text text-anchor="middle" x="573" y="-625.3" font-family="Helvetica,sans-Serif" font-size="14.00">samples = 3.6%</text>
<text text-anchor="middle" x="573" y="-610.3" font-family="Helvetica,sans-Serif" font-size="14.00">value = [0.352, 0.648]</text>
<text text-anchor="middle" x="573" y="-595.3" font-family="Helvetica,sans-Serif" font-size="14.00">class = True</text>
</g>
<!-- 4&#45;&gt;30 -->
<g id="edge22" class="edge">
<title>4&#45;&gt;30</title>
<path fill="none" stroke="black" d="M509.65,-698.91C519.17,-687.43 529.53,-674.94 539.06,-663.44"/>
<polygon fill="black" stroke="black" points="541.81,-665.6 545.5,-655.67 536.43,-661.13 541.81,-665.6"/>
</g>
<!-- 6 -->
<g id="node7" class="node">
<title>6</title>
<polygon fill="#e7f3fc" stroke="black" points="370,-544 194,-544 194,-461 370,-461 370,-544"/>
<text text-anchor="middle" x="282" y="-528.8" font-family="Helvetica,sans-Serif" font-size="14.00">estado_civil &lt;= 0.5</text>
<text text-anchor="middle" x="282" y="-513.8" font-family="Helvetica,sans-Serif" font-size="14.00">gini = 0.498</text>
<text text-anchor="middle" x="282" y="-498.8" font-family="Helvetica,sans-Serif" font-size="14.00">samples = 19.3%</text>
<text text-anchor="middle" x="282" y="-483.8" font-family="Helvetica,sans-Serif" font-size="14.00">value = [0.467, 0.533]</text>
<text text-anchor="middle" x="282" y="-468.8" font-family="Helvetica,sans-Serif" font-size="14.00">class = True</text>
</g>
<!-- 5&#45;&gt;6 -->
<g id="edge6" class="edge">
<title>5&#45;&gt;6</title>
<path fill="none" stroke="black" d="M345.35,-579.91C337.82,-570.83 329.77,-561.12 322.02,-551.77"/>
<polygon fill="black" stroke="black" points="324.67,-549.49 315.59,-544.02 319.28,-553.95 324.67,-549.49"/>
</g>
<!-- 19 -->
<g id="node16" class="node">
<title>19</title>
<polygon fill="#fae8dc" stroke="black" points="564,-544 388,-544 388,-461 564,-461 564,-544"/>
<text text-anchor="middle" x="476" y="-528.8" font-family="Helvetica,sans-Serif" font-size="14.00">class_idade &lt;= 1.5</text>
<text text-anchor="middle" x="476" y="-513.8" font-family="Helvetica,sans-Serif" font-size="14.00">gini = 0.495</text>
<text text-anchor="middle" x="476" y="-498.8" font-family="Helvetica,sans-Serif" font-size="14.00">samples = 13.2%</text>
<text text-anchor="middle" x="476" y="-483.8" font-family="Helvetica,sans-Serif" font-size="14.00">value = [0.549, 0.451]</text>
<text text-anchor="middle" x="476" y="-468.8" font-family="Helvetica,sans-Serif" font-size="14.00">class = False</text>
</g>
<!-- 5&#45;&gt;19 -->
<g id="edge15" class="edge">
<title>5&#45;&gt;19</title>
<path fill="none" stroke="black" d="M412.65,-579.91C420.18,-570.83 428.23,-561.12 435.98,-551.77"/>
<polygon fill="black" stroke="black" points="438.72,-553.95 442.41,-544.02 433.33,-549.49 438.72,-553.95"/>
</g>
<!-- 7 -->
<g id="node8" class="node">
<title>7</title>
<polygon fill="#cfe7f9" stroke="black" points="176,-417.5 0,-417.5 0,-349.5 176,-349.5 176,-417.5"/>
<text text-anchor="middle" x="88" y="-402.3" font-family="Helvetica,sans-Serif" font-size="14.00">gini = 0.491</text>
<text text-anchor="middle" x="88" y="-387.3" font-family="Helvetica,sans-Serif" font-size="14.00">samples = 8.0%</text>
<text text-anchor="middle" x="88" y="-372.3" font-family="Helvetica,sans-Serif" font-size="14.00">value = [0.431, 0.569]</text>
<text text-anchor="middle" x="88" y="-357.3" font-family="Helvetica,sans-Serif" font-size="14.00">class = True</text>
</g>
<!-- 6&#45;&gt;7 -->
<g id="edge7" class="edge">
<title>6&#45;&gt;7</title>
<path fill="none" stroke="black" d="M214.69,-460.91C194.29,-448.6 171.95,-435.13 151.79,-422.97"/>
<polygon fill="black" stroke="black" points="153.37,-419.83 142.99,-417.67 149.75,-425.83 153.37,-419.83"/>
</g>
<!-- 12 -->
<g id="node9" class="node">
<title>12</title>
<polygon fill="#fcfdff" stroke="black" points="370,-425 194,-425 194,-342 370,-342 370,-425"/>
<text text-anchor="middle" x="282" y="-409.8" font-family="Helvetica,sans-Serif" font-size="14.00">upf &lt;= 0.5</text>
<text text-anchor="middle" x="282" y="-394.8" font-family="Helvetica,sans-Serif" font-size="14.00">gini = 0.5</text>
<text text-anchor="middle" x="282" y="-379.8" font-family="Helvetica,sans-Serif" font-size="14.00">samples = 11.3%</text>
<text text-anchor="middle" x="282" y="-364.8" font-family="Helvetica,sans-Serif" font-size="14.00">value = [0.496, 0.504]</text>
<text text-anchor="middle" x="282" y="-349.8" font-family="Helvetica,sans-Serif" font-size="14.00">class = True</text>
</g>
<!-- 6&#45;&gt;12 -->
<g id="edge8" class="edge">
<title>6&#45;&gt;12</title>
<path fill="none" stroke="black" d="M282,-460.91C282,-452.65 282,-443.86 282,-435.3"/>
<polygon fill="black" stroke="black" points="285.5,-435.02 282,-425.02 278.5,-435.02 285.5,-435.02"/>
</g>
<!-- 13 -->
<g id="node10" class="node">
<title>13</title>
<polygon fill="#f6d3ba" stroke="black" points="278,-298.5 102,-298.5 102,-230.5 278,-230.5 278,-298.5"/>
<text text-anchor="middle" x="190" y="-283.3" font-family="Helvetica,sans-Serif" font-size="14.00">gini = 0.477</text>
<text text-anchor="middle" x="190" y="-268.3" font-family="Helvetica,sans-Serif" font-size="14.00">samples = 1.7%</text>
<text text-anchor="middle" x="190" y="-253.3" font-family="Helvetica,sans-Serif" font-size="14.00">value = [0.606, 0.394]</text>
<text text-anchor="middle" x="190" y="-238.3" font-family="Helvetica,sans-Serif" font-size="14.00">class = False</text>
</g>
<!-- 12&#45;&gt;13 -->
<g id="edge9" class="edge">
<title>12&#45;&gt;13</title>
<path fill="none" stroke="black" d="M250.08,-341.91C241.14,-330.54 231.42,-318.18 222.45,-306.77"/>
<polygon fill="black" stroke="black" points="225.01,-304.36 216.08,-298.67 219.51,-308.69 225.01,-304.36"/>
</g>
<!-- 14 -->
<g id="node11" class="node">
<title>14</title>
<polygon fill="#f0f7fd" stroke="black" points="454,-306 296,-306 296,-223 454,-223 454,-306"/>
<text text-anchor="middle" x="375" y="-290.8" font-family="Helvetica,sans-Serif" font-size="14.00">obesidade &lt;= 0.5</text>
<text text-anchor="middle" x="375" y="-275.8" font-family="Helvetica,sans-Serif" font-size="14.00">gini = 0.499</text>
<text text-anchor="middle" x="375" y="-260.8" font-family="Helvetica,sans-Serif" font-size="14.00">samples = 9.6%</text>
<text text-anchor="middle" x="375" y="-245.8" font-family="Helvetica,sans-Serif" font-size="14.00">value = [0.48, 0.52]</text>
<text text-anchor="middle" x="375" y="-230.8" font-family="Helvetica,sans-Serif" font-size="14.00">class = True</text>
</g>
<!-- 12&#45;&gt;14 -->
<g id="edge10" class="edge">
<title>12&#45;&gt;14</title>
<path fill="none" stroke="black" d="M314.27,-341.91C321.41,-332.92 329.04,-323.32 336.41,-314.05"/>
<polygon fill="black" stroke="black" points="339.31,-316.03 342.79,-306.02 333.83,-311.67 339.31,-316.03"/>
</g>
<!-- 15 -->
<g id="node12" class="node">
<title>15</title>
<polygon fill="#fcfdff" stroke="black" points="317,-187 141,-187 141,-104 317,-104 317,-187"/>
<text text-anchor="middle" x="229" y="-171.8" font-family="Helvetica,sans-Serif" font-size="14.00">cons_alcool &lt;= 0.5</text>
<text text-anchor="middle" x="229" y="-156.8" font-family="Helvetica,sans-Serif" font-size="14.00">gini = 0.5</text>
<text text-anchor="middle" x="229" y="-141.8" font-family="Helvetica,sans-Serif" font-size="14.00">samples = 7.6%</text>
<text text-anchor="middle" x="229" y="-126.8" font-family="Helvetica,sans-Serif" font-size="14.00">value = [0.496, 0.504]</text>
<text text-anchor="middle" x="229" y="-111.8" font-family="Helvetica,sans-Serif" font-size="14.00">class = True</text>
</g>
<!-- 14&#45;&gt;15 -->
<g id="edge11" class="edge">
<title>14&#45;&gt;15</title>
<path fill="none" stroke="black" d="M324.35,-222.91C312.46,-213.38 299.69,-203.15 287.49,-193.37"/>
<polygon fill="black" stroke="black" points="289.56,-190.54 279.56,-187.02 285.18,-196.01 289.56,-190.54"/>
</g>
<!-- 18 -->
<g id="node15" class="node">
<title>18</title>
<polygon fill="#cde6f8" stroke="black" points="511,-179.5 335,-179.5 335,-111.5 511,-111.5 511,-179.5"/>
<text text-anchor="middle" x="423" y="-164.3" font-family="Helvetica,sans-Serif" font-size="14.00">gini = 0.489</text>
<text text-anchor="middle" x="423" y="-149.3" font-family="Helvetica,sans-Serif" font-size="14.00">samples = 2.0%</text>
<text text-anchor="middle" x="423" y="-134.3" font-family="Helvetica,sans-Serif" font-size="14.00">value = [0.427, 0.573]</text>
<text text-anchor="middle" x="423" y="-119.3" font-family="Helvetica,sans-Serif" font-size="14.00">class = True</text>
</g>
<!-- 14&#45;&gt;18 -->
<g id="edge14" class="edge">
<title>14&#45;&gt;18</title>
<path fill="none" stroke="black" d="M391.65,-222.91C396.14,-211.98 401,-200.14 405.52,-189.11"/>
<polygon fill="black" stroke="black" points="408.84,-190.25 409.39,-179.67 402.36,-187.59 408.84,-190.25"/>
</g>
<!-- 16 -->
<g id="node13" class="node">
<title>16</title>
<polygon fill="#fef8f4" stroke="black" points="220,-68 44,-68 44,0 220,0 220,-68"/>
<text text-anchor="middle" x="132" y="-52.8" font-family="Helvetica,sans-Serif" font-size="14.00">gini = 0.5</text>
<text text-anchor="middle" x="132" y="-37.8" font-family="Helvetica,sans-Serif" font-size="14.00">samples = 5.8%</text>
<text text-anchor="middle" x="132" y="-22.8" font-family="Helvetica,sans-Serif" font-size="14.00">value = [0.515, 0.485]</text>
<text text-anchor="middle" x="132" y="-7.8" font-family="Helvetica,sans-Serif" font-size="14.00">class = False</text>
</g>
<!-- 15&#45;&gt;16 -->
<g id="edge12" class="edge">
<title>15&#45;&gt;16</title>
<path fill="none" stroke="black" d="M192.88,-103.73C184.8,-94.61 176.23,-84.93 168.15,-75.81"/>
<polygon fill="black" stroke="black" points="170.75,-73.46 161.5,-68.3 165.51,-78.11 170.75,-73.46"/>
</g>
<!-- 17 -->
<g id="node14" class="node">
<title>17</title>
<polygon fill="#d5eaf9" stroke="black" points="414,-68 238,-68 238,0 414,0 414,-68"/>
<text text-anchor="middle" x="326" y="-52.8" font-family="Helvetica,sans-Serif" font-size="14.00">gini = 0.493</text>
<text text-anchor="middle" x="326" y="-37.8" font-family="Helvetica,sans-Serif" font-size="14.00">samples = 1.8%</text>
<text text-anchor="middle" x="326" y="-22.8" font-family="Helvetica,sans-Serif" font-size="14.00">value = [0.441, 0.559]</text>
<text text-anchor="middle" x="326" y="-7.8" font-family="Helvetica,sans-Serif" font-size="14.00">class = True</text>
</g>
<!-- 15&#45;&gt;17 -->
<g id="edge13" class="edge">
<title>15&#45;&gt;17</title>
<path fill="none" stroke="black" d="M265.12,-103.73C273.2,-94.61 281.77,-84.93 289.85,-75.81"/>
<polygon fill="black" stroke="black" points="292.49,-78.11 296.5,-68.3 287.25,-73.46 292.49,-78.11"/>
</g>
<!-- 20 -->
<g id="node17" class="node">
<title>20</title>
<polygon fill="#f2f8fd" stroke="black" points="564,-417.5 388,-417.5 388,-349.5 564,-349.5 564,-417.5"/>
<text text-anchor="middle" x="476" y="-402.3" font-family="Helvetica,sans-Serif" font-size="14.00">gini = 0.499</text>
<text text-anchor="middle" x="476" y="-387.3" font-family="Helvetica,sans-Serif" font-size="14.00">samples = 2.3%</text>
<text text-anchor="middle" x="476" y="-372.3" font-family="Helvetica,sans-Serif" font-size="14.00">value = [0.483, 0.517]</text>
<text text-anchor="middle" x="476" y="-357.3" font-family="Helvetica,sans-Serif" font-size="14.00">class = True</text>
</g>
<!-- 19&#45;&gt;20 -->
<g id="edge16" class="edge">
<title>19&#45;&gt;20</title>
<path fill="none" stroke="black" d="M476,-460.91C476,-450.2 476,-438.62 476,-427.78"/>
<polygon fill="black" stroke="black" points="479.5,-427.67 476,-417.67 472.5,-427.67 479.5,-427.67"/>
</g>
<!-- 21 -->
<g id="node18" class="node">
<title>21</title>
<polygon fill="#f9e2d1" stroke="black" points="758,-425 582,-425 582,-342 758,-342 758,-425"/>
<text text-anchor="middle" x="670" y="-409.8" font-family="Helvetica,sans-Serif" font-size="14.00">exerc_fisico &lt;= 0.5</text>
<text text-anchor="middle" x="670" y="-394.8" font-family="Helvetica,sans-Serif" font-size="14.00">gini = 0.491</text>
<text text-anchor="middle" x="670" y="-379.8" font-family="Helvetica,sans-Serif" font-size="14.00">samples = 10.9%</text>
<text text-anchor="middle" x="670" y="-364.8" font-family="Helvetica,sans-Serif" font-size="14.00">value = [0.565, 0.435]</text>
<text text-anchor="middle" x="670" y="-349.8" font-family="Helvetica,sans-Serif" font-size="14.00">class = False</text>
</g>
<!-- 19&#45;&gt;21 -->
<g id="edge17" class="edge">
<title>19&#45;&gt;21</title>
<path fill="none" stroke="black" d="M543.31,-460.91C559.71,-451.02 577.36,-440.37 594.13,-430.25"/>
<polygon fill="black" stroke="black" points="596.06,-433.18 602.81,-425.02 592.44,-427.19 596.06,-433.18"/>
</g>
<!-- 22 -->
<g id="node19" class="node">
<title>22</title>
<polygon fill="#fdf4ed" stroke="black" points="733,-306 557,-306 557,-223 733,-223 733,-306"/>
<text text-anchor="middle" x="645" y="-290.8" font-family="Helvetica,sans-Serif" font-size="14.00">escolaridade &lt;= 2.5</text>
<text text-anchor="middle" x="645" y="-275.8" font-family="Helvetica,sans-Serif" font-size="14.00">gini = 0.499</text>
<text text-anchor="middle" x="645" y="-260.8" font-family="Helvetica,sans-Serif" font-size="14.00">samples = 4.8%</text>
<text text-anchor="middle" x="645" y="-245.8" font-family="Helvetica,sans-Serif" font-size="14.00">value = [0.523, 0.477]</text>
<text text-anchor="middle" x="645" y="-230.8" font-family="Helvetica,sans-Serif" font-size="14.00">class = False</text>
</g>
<!-- 21&#45;&gt;22 -->
<g id="edge18" class="edge">
<title>21&#45;&gt;22</title>
<path fill="none" stroke="black" d="M661.33,-341.91C659.54,-333.56 657.64,-324.67 655.79,-316.02"/>
<polygon fill="black" stroke="black" points="659.17,-315.07 653.66,-306.02 652.33,-316.53 659.17,-315.07"/>
</g>
<!-- 25 -->
<g id="node22" class="node">
<title>25</title>
<polygon fill="#f6d4bb" stroke="black" points="927,-298.5 751,-298.5 751,-230.5 927,-230.5 927,-298.5"/>
<text text-anchor="middle" x="839" y="-283.3" font-family="Helvetica,sans-Serif" font-size="14.00">gini = 0.479</text>
<text text-anchor="middle" x="839" y="-268.3" font-family="Helvetica,sans-Serif" font-size="14.00">samples = 6.0%</text>
<text text-anchor="middle" x="839" y="-253.3" font-family="Helvetica,sans-Serif" font-size="14.00">value = [0.603, 0.397]</text>
<text text-anchor="middle" x="839" y="-238.3" font-family="Helvetica,sans-Serif" font-size="14.00">class = False</text>
</g>
<!-- 21&#45;&gt;25 -->
<g id="edge21" class="edge">
<title>21&#45;&gt;25</title>
<path fill="none" stroke="black" d="M728.63,-341.91C746.17,-329.77 765.34,-316.49 782.72,-304.46"/>
<polygon fill="black" stroke="black" points="784.86,-307.24 791.09,-298.67 780.88,-301.48 784.86,-307.24"/>
</g>
<!-- 23 -->
<g id="node20" class="node">
<title>23</title>
<polygon fill="#fae8db" stroke="black" points="709,-179.5 533,-179.5 533,-111.5 709,-111.5 709,-179.5"/>
<text text-anchor="middle" x="621" y="-164.3" font-family="Helvetica,sans-Serif" font-size="14.00">gini = 0.495</text>
<text text-anchor="middle" x="621" y="-149.3" font-family="Helvetica,sans-Serif" font-size="14.00">samples = 2.8%</text>
<text text-anchor="middle" x="621" y="-134.3" font-family="Helvetica,sans-Serif" font-size="14.00">value = [0.549, 0.451]</text>
<text text-anchor="middle" x="621" y="-119.3" font-family="Helvetica,sans-Serif" font-size="14.00">class = False</text>
</g>
<!-- 22&#45;&gt;23 -->
<g id="edge19" class="edge">
<title>22&#45;&gt;23</title>
<path fill="none" stroke="black" d="M636.67,-222.91C634.48,-212.2 632.1,-200.62 629.88,-189.78"/>
<polygon fill="black" stroke="black" points="633.24,-188.76 627.8,-179.67 626.38,-190.17 633.24,-188.76"/>
</g>
<!-- 24 -->
<g id="node21" class="node">
<title>24</title>
<polygon fill="#f8fcfe" stroke="black" points="903,-179.5 727,-179.5 727,-111.5 903,-111.5 903,-179.5"/>
<text text-anchor="middle" x="815" y="-164.3" font-family="Helvetica,sans-Serif" font-size="14.00">gini = 0.5</text>
<text text-anchor="middle" x="815" y="-149.3" font-family="Helvetica,sans-Serif" font-size="14.00">samples = 2.1%</text>
<text text-anchor="middle" x="815" y="-134.3" font-family="Helvetica,sans-Serif" font-size="14.00">value = [0.491, 0.509]</text>
<text text-anchor="middle" x="815" y="-119.3" font-family="Helvetica,sans-Serif" font-size="14.00">class = True</text>
</g>
<!-- 22&#45;&gt;24 -->
<g id="edge20" class="edge">
<title>22&#45;&gt;24</title>
<path fill="none" stroke="black" d="M703.98,-222.91C721.62,-210.77 740.91,-197.49 758.39,-185.46"/>
<polygon fill="black" stroke="black" points="760.56,-188.22 766.81,-179.67 756.59,-182.45 760.56,-188.22"/>
</g>
<!-- 43 -->
<g id="node28" class="node">
<title>43</title>
<polygon fill="#f0b78d" stroke="black" points="1026,-1012.5 850,-1012.5 850,-944.5 1026,-944.5 1026,-1012.5"/>
<text text-anchor="middle" x="938" y="-997.3" font-family="Helvetica,sans-Serif" font-size="14.00">gini = 0.419</text>
<text text-anchor="middle" x="938" y="-982.3" font-family="Helvetica,sans-Serif" font-size="14.00">samples = 38.7%</text>
<text text-anchor="middle" x="938" y="-967.3" font-family="Helvetica,sans-Serif" font-size="14.00">value = [0.701, 0.299]</text>
<text text-anchor="middle" x="938" y="-952.3" font-family="Helvetica,sans-Serif" font-size="14.00">class = False</text>
</g>
<!-- 42&#45;&gt;43 -->
<g id="edge27" class="edge">
<title>42&#45;&gt;43</title>
<path fill="none" stroke="black" d="M938,-1055.91C938,-1045.2 938,-1033.62 938,-1022.78"/>
<polygon fill="black" stroke="black" points="941.5,-1022.67 938,-1012.67 934.5,-1022.67 941.5,-1022.67"/>
</g>
<!-- 70 -->
<g id="node29" class="node">
<title>70</title>
<polygon fill="#fef9f6" stroke="black" points="1251.5,-1020 1044.5,-1020 1044.5,-937 1251.5,-937 1251.5,-1020"/>
<text text-anchor="middle" x="1148" y="-1004.8" font-family="Helvetica,sans-Serif" font-size="14.00">hipercolesterolemia &lt;= 0.5</text>
<text text-anchor="middle" x="1148" y="-989.8" font-family="Helvetica,sans-Serif" font-size="14.00">gini = 0.5</text>
<text text-anchor="middle" x="1148" y="-974.8" font-family="Helvetica,sans-Serif" font-size="14.00">samples = 7.5%</text>
<text text-anchor="middle" x="1148" y="-959.8" font-family="Helvetica,sans-Serif" font-size="14.00">value = [0.512, 0.488]</text>
<text text-anchor="middle" x="1148" y="-944.8" font-family="Helvetica,sans-Serif" font-size="14.00">class = False</text>
</g>
<!-- 42&#45;&gt;70 -->
<g id="edge28" class="edge">
<title>42&#45;&gt;70</title>
<path fill="none" stroke="black" d="M1010.86,-1055.91C1028.78,-1045.92 1048.08,-1035.17 1066.38,-1024.98"/>
<polygon fill="black" stroke="black" points="1068.24,-1027.95 1075.27,-1020.02 1064.83,-1021.83 1068.24,-1027.95"/>
</g>
<!-- 71 -->
<g id="node30" class="node">
<title>71</title>
<polygon fill="#f9e2d1" stroke="black" points="1121,-901 945,-901 945,-818 1121,-818 1121,-901"/>
<text text-anchor="middle" x="1033" y="-885.8" font-family="Helvetica,sans-Serif" font-size="14.00">estado_civil &lt;= 0.5</text>
<text text-anchor="middle" x="1033" y="-870.8" font-family="Helvetica,sans-Serif" font-size="14.00">gini = 0.491</text>
<text text-anchor="middle" x="1033" y="-855.8" font-family="Helvetica,sans-Serif" font-size="14.00">samples = 5.5%</text>
<text text-anchor="middle" x="1033" y="-840.8" font-family="Helvetica,sans-Serif" font-size="14.00">value = [0.566, 0.434]</text>
<text text-anchor="middle" x="1033" y="-825.8" font-family="Helvetica,sans-Serif" font-size="14.00">class = False</text>
</g>
<!-- 70&#45;&gt;71 -->
<g id="edge29" class="edge">
<title>70&#45;&gt;71</title>
<path fill="none" stroke="black" d="M1108.1,-936.91C1099,-927.65 1089.25,-917.73 1079.89,-908.21"/>
<polygon fill="black" stroke="black" points="1082.33,-905.7 1072.83,-901.02 1077.34,-910.61 1082.33,-905.7"/>
</g>
<!-- 76 -->
<g id="node33" class="node">
<title>76</title>
<polygon fill="#bcdef6" stroke="black" points="1315,-893.5 1139,-893.5 1139,-825.5 1315,-825.5 1315,-893.5"/>
<text text-anchor="middle" x="1227" y="-878.3" font-family="Helvetica,sans-Serif" font-size="14.00">gini = 0.48</text>
<text text-anchor="middle" x="1227" y="-863.3" font-family="Helvetica,sans-Serif" font-size="14.00">samples = 2.0%</text>
<text text-anchor="middle" x="1227" y="-848.3" font-family="Helvetica,sans-Serif" font-size="14.00">value = [0.399, 0.601]</text>
<text text-anchor="middle" x="1227" y="-833.3" font-family="Helvetica,sans-Serif" font-size="14.00">class = True</text>
</g>
<!-- 70&#45;&gt;76 -->
<g id="edge32" class="edge">
<title>70&#45;&gt;76</title>
<path fill="none" stroke="black" d="M1175.41,-936.91C1183.01,-925.65 1191.27,-913.42 1198.91,-902.11"/>
<polygon fill="black" stroke="black" points="1201.91,-903.91 1204.61,-893.67 1196.11,-900 1201.91,-903.91"/>
</g>
<!-- 72 -->
<g id="node31" class="node">
<title>72</title>
<polygon fill="#d5eafa" stroke="black" points="1070,-774.5 894,-774.5 894,-706.5 1070,-706.5 1070,-774.5"/>
<text text-anchor="middle" x="982" y="-759.3" font-family="Helvetica,sans-Serif" font-size="14.00">gini = 0.493</text>
<text text-anchor="middle" x="982" y="-744.3" font-family="Helvetica,sans-Serif" font-size="14.00">samples = 1.5%</text>
<text text-anchor="middle" x="982" y="-729.3" font-family="Helvetica,sans-Serif" font-size="14.00">value = [0.441, 0.559]</text>
<text text-anchor="middle" x="982" y="-714.3" font-family="Helvetica,sans-Serif" font-size="14.00">class = True</text>
</g>
<!-- 71&#45;&gt;72 -->
<g id="edge30" class="edge">
<title>71&#45;&gt;72</title>
<path fill="none" stroke="black" d="M1015.31,-817.91C1010.54,-806.98 1005.38,-795.14 1000.57,-784.11"/>
<polygon fill="black" stroke="black" points="1003.66,-782.44 996.46,-774.67 997.24,-785.23 1003.66,-782.44"/>
</g>
<!-- 73 -->
<g id="node32" class="node">
<title>73</title>
<polygon fill="#f5cdb0" stroke="black" points="1264,-774.5 1088,-774.5 1088,-706.5 1264,-706.5 1264,-774.5"/>
<text text-anchor="middle" x="1176" y="-759.3" font-family="Helvetica,sans-Serif" font-size="14.00">gini = 0.469</text>
<text text-anchor="middle" x="1176" y="-744.3" font-family="Helvetica,sans-Serif" font-size="14.00">samples = 4.0%</text>
<text text-anchor="middle" x="1176" y="-729.3" font-family="Helvetica,sans-Serif" font-size="14.00">value = [0.625, 0.375]</text>
<text text-anchor="middle" x="1176" y="-714.3" font-family="Helvetica,sans-Serif" font-size="14.00">class = False</text>
</g>
<!-- 71&#45;&gt;73 -->
<g id="edge31" class="edge">
<title>71&#45;&gt;73</title>
<path fill="none" stroke="black" d="M1082.61,-817.91C1097.18,-805.99 1113.09,-792.98 1127.58,-781.12"/>
<polygon fill="black" stroke="black" points="1129.94,-783.71 1135.46,-774.67 1125.51,-778.29 1129.94,-783.71"/>
</g>
<!-- \n -->
<g id="node34" class="node">
<title>\n</title>
<polygon fill="black" stroke="black" points="987,-1234.5 933,-1234.5 933,-1198.5 987,-1198.5 987,-1234.5"/>
</g>
</g>
</svg>
