<?xml version="1.0" encoding="UTF-8" standalone="no"?>
<!DOCTYPE svg PUBLIC "-//W3C//DTD SVG 1.1//EN"
 "http://www.w3.org/Graphics/SVG/1.1/DTD/svg11.dtd">
<!-- Generated by graphviz version 2.43.0 (0)
 -->
<!-- Title: Tree Pages: 1 -->
<svg width="1935pt" height="1504pt"
 viewBox="0.00 0.00 1935.00 1504.00" xmlns="http://www.w3.org/2000/svg" xmlns:xlink="http://www.w3.org/1999/xlink">
<g id="graph0" class="graph" transform="scale(1 1) rotate(0) translate(4 1500)">
<title>Tree</title>
<polygon fill="white" stroke="transparent" points="-4,4 -4,-1500 1931,-1500 1931,4 -4,4"/>
<!-- 0 -->
<g id="node1" class="node">
<title>0</title>
<polygon fill="#ffffff" stroke="black" points="1315.5,-1496 1166.5,-1496 1166.5,-1413 1315.5,-1413 1315.5,-1496"/>
<text text-anchor="middle" x="1241" y="-1480.8" font-family="Helvetica,sans-Serif" font-size="14.00">sexo &lt;= 0.5</text>
<text text-anchor="middle" x="1241" y="-1465.8" font-family="Helvetica,sans-Serif" font-size="14.00">gini = 0.5</text>
<text text-anchor="middle" x="1241" y="-1450.8" font-family="Helvetica,sans-Serif" font-size="14.00">samples = 100.0%</text>
<text text-anchor="middle" x="1241" y="-1435.8" font-family="Helvetica,sans-Serif" font-size="14.00">value = [0.5, 0.5]</text>
<text text-anchor="middle" x="1241" y="-1420.8" font-family="Helvetica,sans-Serif" font-size="14.00">class = True</text>
</g>
<!-- 1 -->
<g id="node2" class="node">
<title>1</title>
<polygon fill="#bcdef6" stroke="black" points="1232,-1377 1056,-1377 1056,-1294 1232,-1294 1232,-1377"/>
<text text-anchor="middle" x="1144" y="-1361.8" font-family="Helvetica,sans-Serif" font-size="14.00">artrite &lt;= 0.5</text>
<text text-anchor="middle" x="1144" y="-1346.8" font-family="Helvetica,sans-Serif" font-size="14.00">gini = 0.479</text>
<text text-anchor="middle" x="1144" y="-1331.8" font-family="Helvetica,sans-Serif" font-size="14.00">samples = 51.7%</text>
<text text-anchor="middle" x="1144" y="-1316.8" font-family="Helvetica,sans-Serif" font-size="14.00">value = [0.398, 0.602]</text>
<text text-anchor="middle" x="1144" y="-1301.8" font-family="Helvetica,sans-Serif" font-size="14.00">class = True</text>
</g>
<!-- 0&#45;&gt;1 -->
<g id="edge1" class="edge">
<title>0&#45;&gt;1</title>
<path fill="none" stroke="black" d="M1207.35,-1412.91C1199.82,-1403.83 1191.77,-1394.12 1184.02,-1384.77"/>
<polygon fill="black" stroke="black" points="1186.67,-1382.49 1177.59,-1377.02 1181.28,-1386.95 1186.67,-1382.49"/>
<text text-anchor="middle" x="1175.27" y="-1398.21" font-family="Helvetica,sans-Serif" font-size="14.00">True</text>
</g>
<!-- 58 -->
<g id="node31" class="node">
<title>58</title>
<polygon fill="#f2c19e" stroke="black" points="1426,-1377 1250,-1377 1250,-1294 1426,-1294 1426,-1377"/>
<text text-anchor="middle" x="1338" y="-1361.8" font-family="Helvetica,sans-Serif" font-size="14.00">hipertensao &lt;= 0.5</text>
<text text-anchor="middle" x="1338" y="-1346.8" font-family="Helvetica,sans-Serif" font-size="14.00">gini = 0.447</text>
<text text-anchor="middle" x="1338" y="-1331.8" font-family="Helvetica,sans-Serif" font-size="14.00">samples = 48.3%</text>
<text text-anchor="middle" x="1338" y="-1316.8" font-family="Helvetica,sans-Serif" font-size="14.00">value = [0.663, 0.337]</text>
<text text-anchor="middle" x="1338" y="-1301.8" font-family="Helvetica,sans-Serif" font-size="14.00">class = False</text>
</g>
<!-- 0&#45;&gt;58 -->
<g id="edge30" class="edge">
<title>0&#45;&gt;58</title>
<path fill="none" stroke="black" d="M1274.65,-1412.91C1282.18,-1403.83 1290.23,-1394.12 1297.98,-1384.77"/>
<polygon fill="black" stroke="black" points="1300.72,-1386.95 1304.41,-1377.02 1295.33,-1382.49 1300.72,-1386.95"/>
<text text-anchor="middle" x="1306.73" y="-1398.21" font-family="Helvetica,sans-Serif" font-size="14.00">False</text>
</g>
<!-- 2 -->
<g id="node3" class="node">
<title>2</title>
<polygon fill="#c9e4f8" stroke="black" points="1038,-1258 862,-1258 862,-1175 1038,-1175 1038,-1258"/>
<text text-anchor="middle" x="950" y="-1242.8" font-family="Helvetica,sans-Serif" font-size="14.00">hipertensao &lt;= 0.5</text>
<text text-anchor="middle" x="950" y="-1227.8" font-family="Helvetica,sans-Serif" font-size="14.00">gini = 0.488</text>
<text text-anchor="middle" x="950" y="-1212.8" font-family="Helvetica,sans-Serif" font-size="14.00">samples = 48.1%</text>
<text text-anchor="middle" x="950" y="-1197.8" font-family="Helvetica,sans-Serif" font-size="14.00">value = [0.421, 0.579]</text>
<text text-anchor="middle" x="950" y="-1182.8" font-family="Helvetica,sans-Serif" font-size="14.00">class = True</text>
</g>
<!-- 1&#45;&gt;2 -->
<g id="edge2" class="edge">
<title>1&#45;&gt;2</title>
<path fill="none" stroke="black" d="M1076.69,-1293.91C1060.29,-1284.02 1042.64,-1273.37 1025.87,-1263.25"/>
<polygon fill="black" stroke="black" points="1027.56,-1260.19 1017.19,-1258.02 1023.94,-1266.18 1027.56,-1260.19"/>
</g>
<!-- 55 -->
<g id="node30" class="node">
<title>55</title>
<polygon fill="#6db7ec" stroke="black" points="1232,-1250.5 1056,-1250.5 1056,-1182.5 1232,-1182.5 1232,-1250.5"/>
<text text-anchor="middle" x="1144" y="-1235.3" font-family="Helvetica,sans-Serif" font-size="14.00">gini = 0.328</text>
<text text-anchor="middle" x="1144" y="-1220.3" font-family="Helvetica,sans-Serif" font-size="14.00">samples = 3.6%</text>
<text text-anchor="middle" x="1144" y="-1205.3" font-family="Helvetica,sans-Serif" font-size="14.00">value = [0.207, 0.793]</text>
<text text-anchor="middle" x="1144" y="-1190.3" font-family="Helvetica,sans-Serif" font-size="14.00">class = True</text>
</g>
<!-- 1&#45;&gt;55 -->
<g id="edge29" class="edge">
<title>1&#45;&gt;55</title>
<path fill="none" stroke="black" d="M1144,-1293.91C1144,-1283.2 1144,-1271.62 1144,-1260.78"/>
<polygon fill="black" stroke="black" points="1147.5,-1260.67 1144,-1250.67 1140.5,-1260.67 1147.5,-1260.67"/>
</g>
<!-- 3 -->
<g id="node4" class="node">
<title>3</title>
<polygon fill="#daedfa" stroke="black" points="844,-1139 668,-1139 668,-1056 844,-1056 844,-1139"/>
<text text-anchor="middle" x="756" y="-1123.8" font-family="Helvetica,sans-Serif" font-size="14.00">tabagismo &lt;= 0.5</text>
<text text-anchor="middle" x="756" y="-1108.8" font-family="Helvetica,sans-Serif" font-size="14.00">gini = 0.495</text>
<text text-anchor="middle" x="756" y="-1093.8" font-family="Helvetica,sans-Serif" font-size="14.00">samples = 39.0%</text>
<text text-anchor="middle" x="756" y="-1078.8" font-family="Helvetica,sans-Serif" font-size="14.00">value = [0.449, 0.551]</text>
<text text-anchor="middle" x="756" y="-1063.8" font-family="Helvetica,sans-Serif" font-size="14.00">class = True</text>
</g>
<!-- 2&#45;&gt;3 -->
<g id="edge3" class="edge">
<title>2&#45;&gt;3</title>
<path fill="none" stroke="black" d="M882.69,-1174.91C866.29,-1165.02 848.64,-1154.37 831.87,-1144.25"/>
<polygon fill="black" stroke="black" points="833.56,-1141.19 823.19,-1139.02 829.94,-1147.18 833.56,-1141.19"/>
</g>
<!-- 44 -->
<g id="node29" class="node">
<title>44</title>
<polygon fill="#99cdf2" stroke="black" points="1038,-1131.5 862,-1131.5 862,-1063.5 1038,-1063.5 1038,-1131.5"/>
<text text-anchor="middle" x="950" y="-1116.3" font-family="Helvetica,sans-Serif" font-size="14.00">gini = 0.44</text>
<text text-anchor="middle" x="950" y="-1101.3" font-family="Helvetica,sans-Serif" font-size="14.00">samples = 9.1%</text>
<text text-anchor="middle" x="950" y="-1086.3" font-family="Helvetica,sans-Serif" font-size="14.00">value = [0.327, 0.673]</text>
<text text-anchor="middle" x="950" y="-1071.3" font-family="Helvetica,sans-Serif" font-size="14.00">class = True</text>
</g>
<!-- 2&#45;&gt;44 -->
<g id="edge28" class="edge">
<title>2&#45;&gt;44</title>
<path fill="none" stroke="black" d="M950,-1174.91C950,-1164.2 950,-1152.62 950,-1141.78"/>
<polygon fill="black" stroke="black" points="953.5,-1141.67 950,-1131.67 946.5,-1141.67 953.5,-1141.67"/>
</g>
<!-- 4 -->
<g id="node5" class="node">
<title>4</title>
<polygon fill="#e8f4fc" stroke="black" points="698.5,-1020 491.5,-1020 491.5,-937 698.5,-937 698.5,-1020"/>
<text text-anchor="middle" x="595" y="-1004.8" font-family="Helvetica,sans-Serif" font-size="14.00">hipercolesterolemia &lt;= 0.5</text>
<text text-anchor="middle" x="595" y="-989.8" font-family="Helvetica,sans-Serif" font-size="14.00">gini = 0.498</text>
<text text-anchor="middle" x="595" y="-974.8" font-family="Helvetica,sans-Serif" font-size="14.00">samples = 35.4%</text>
<text text-anchor="middle" x="595" y="-959.8" font-family="Helvetica,sans-Serif" font-size="14.00">value = [0.47, 0.53]</text>
<text text-anchor="middle" x="595" y="-944.8" font-family="Helvetica,sans-Serif" font-size="14.00">class = True</text>
</g>
<!-- 3&#45;&gt;4 -->
<g id="edge4" class="edge">
<title>3&#45;&gt;4</title>
<path fill="none" stroke="black" d="M700.14,-1055.91C686.9,-1046.29 672.68,-1035.95 659.11,-1026.09"/>
<polygon fill="black" stroke="black" points="660.91,-1023.07 650.76,-1020.02 656.79,-1028.73 660.91,-1023.07"/>
</g>
<!-- 41 -->
<g id="node28" class="node">
<title>41</title>
<polygon fill="#8ec7f0" stroke="black" points="893,-1012.5 717,-1012.5 717,-944.5 893,-944.5 893,-1012.5"/>
<text text-anchor="middle" x="805" y="-997.3" font-family="Helvetica,sans-Serif" font-size="14.00">gini = 0.421</text>
<text text-anchor="middle" x="805" y="-982.3" font-family="Helvetica,sans-Serif" font-size="14.00">samples = 3.6%</text>
<text text-anchor="middle" x="805" y="-967.3" font-family="Helvetica,sans-Serif" font-size="14.00">value = [0.301, 0.699]</text>
<text text-anchor="middle" x="805" y="-952.3" font-family="Helvetica,sans-Serif" font-size="14.00">class = True</text>
</g>
<!-- 3&#45;&gt;41 -->
<g id="edge27" class="edge">
<title>3&#45;&gt;41</title>
<path fill="none" stroke="black" d="M773,-1055.91C777.58,-1044.98 782.54,-1033.14 787.16,-1022.11"/>
<polygon fill="black" stroke="black" points="790.47,-1023.24 791.11,-1012.67 784.02,-1020.54 790.47,-1023.24"/>
</g>
<!-- 5 -->
<g id="node6" class="node">
<title>5</title>
<polygon fill="#f5fafe" stroke="black" points="591,-901 415,-901 415,-818 591,-818 591,-901"/>
<text text-anchor="middle" x="503" y="-885.8" font-family="Helvetica,sans-Serif" font-size="14.00">class_renda &lt;= 0.5</text>
<text text-anchor="middle" x="503" y="-870.8" font-family="Helvetica,sans-Serif" font-size="14.00">gini = 0.5</text>
<text text-anchor="middle" x="503" y="-855.8" font-family="Helvetica,sans-Serif" font-size="14.00">samples = 32.1%</text>
<text text-anchor="middle" x="503" y="-840.8" font-family="Helvetica,sans-Serif" font-size="14.00">value = [0.487, 0.513]</text>
<text text-anchor="middle" x="503" y="-825.8" font-family="Helvetica,sans-Serif" font-size="14.00">class = True</text>
</g>
<!-- 4&#45;&gt;5 -->
<g id="edge5" class="edge">
<title>4&#45;&gt;5</title>
<path fill="none" stroke="black" d="M563.08,-936.91C556.02,-927.92 548.46,-918.32 541.18,-909.05"/>
<polygon fill="black" stroke="black" points="543.8,-906.72 534.86,-901.02 538.29,-911.05 543.8,-906.72"/>
</g>
<!-- 38 -->
<g id="node27" class="node">
<title>38</title>
<polygon fill="#9fd0f2" stroke="black" points="767,-893.5 609,-893.5 609,-825.5 767,-825.5 767,-893.5"/>
<text text-anchor="middle" x="688" y="-878.3" font-family="Helvetica,sans-Serif" font-size="14.00">gini = 0.449</text>
<text text-anchor="middle" x="688" y="-863.3" font-family="Helvetica,sans-Serif" font-size="14.00">samples = 3.3%</text>
<text text-anchor="middle" x="688" y="-848.3" font-family="Helvetica,sans-Serif" font-size="14.00">value = [0.34, 0.66]</text>
<text text-anchor="middle" x="688" y="-833.3" font-family="Helvetica,sans-Serif" font-size="14.00">class = True</text>
</g>
<!-- 4&#45;&gt;38 -->
<g id="edge26" class="edge">
<title>4&#45;&gt;38</title>
<path fill="none" stroke="black" d="M627.27,-936.91C636.3,-925.54 646.13,-913.18 655.19,-901.77"/>
<polygon fill="black" stroke="black" points="658.15,-903.67 661.64,-893.67 652.67,-899.32 658.15,-903.67"/>
</g>
<!-- 6 -->
<g id="node7" class="node">
<title>6</title>
<polygon fill="#e2f1fb" stroke="black" points="494,-782 318,-782 318,-699 494,-699 494,-782"/>
<text text-anchor="middle" x="406" y="-766.8" font-family="Helvetica,sans-Serif" font-size="14.00">estado_civil &lt;= 0.5</text>
<text text-anchor="middle" x="406" y="-751.8" font-family="Helvetica,sans-Serif" font-size="14.00">gini = 0.497</text>
<text text-anchor="middle" x="406" y="-736.8" font-family="Helvetica,sans-Serif" font-size="14.00">samples = 19.4%</text>
<text text-anchor="middle" x="406" y="-721.8" font-family="Helvetica,sans-Serif" font-size="14.00">value = [0.461, 0.539]</text>
<text text-anchor="middle" x="406" y="-706.8" font-family="Helvetica,sans-Serif" font-size="14.00">class = True</text>
</g>
<!-- 5&#45;&gt;6 -->
<g id="edge6" class="edge">
<title>5&#45;&gt;6</title>
<path fill="none" stroke="black" d="M469.35,-817.91C461.82,-808.83 453.77,-799.12 446.02,-789.77"/>
<polygon fill="black" stroke="black" points="448.67,-787.49 439.59,-782.02 443.28,-791.95 448.67,-787.49"/>
</g>
<!-- 27 -->
<g id="node20" class="node">
<title>27</title>
<polygon fill="#fcf0e8" stroke="black" points="688,-782 512,-782 512,-699 688,-699 688,-782"/>
<text text-anchor="middle" x="600" y="-766.8" font-family="Helvetica,sans-Serif" font-size="14.00">class_idade &lt;= 1.5</text>
<text text-anchor="middle" x="600" y="-751.8" font-family="Helvetica,sans-Serif" font-size="14.00">gini = 0.498</text>
<text text-anchor="middle" x="600" y="-736.8" font-family="Helvetica,sans-Serif" font-size="14.00">samples = 12.8%</text>
<text text-anchor="middle" x="600" y="-721.8" font-family="Helvetica,sans-Serif" font-size="14.00">value = [0.531, 0.469]</text>
<text text-anchor="middle" x="600" y="-706.8" font-family="Helvetica,sans-Serif" font-size="14.00">class = False</text>
</g>
<!-- 5&#45;&gt;27 -->
<g id="edge19" class="edge">
<title>5&#45;&gt;27</title>
<path fill="none" stroke="black" d="M536.65,-817.91C544.18,-808.83 552.23,-799.12 559.98,-789.77"/>
<polygon fill="black" stroke="black" points="562.72,-791.95 566.41,-782.02 557.33,-787.49 562.72,-791.95"/>
</g>
<!-- 7 -->
<g id="node8" class="node">
<title>7</title>
<polygon fill="#cce6f8" stroke="black" points="300,-655.5 124,-655.5 124,-587.5 300,-587.5 300,-655.5"/>
<text text-anchor="middle" x="212" y="-640.3" font-family="Helvetica,sans-Serif" font-size="14.00">gini = 0.489</text>
<text text-anchor="middle" x="212" y="-625.3" font-family="Helvetica,sans-Serif" font-size="14.00">samples = 8.5%</text>
<text text-anchor="middle" x="212" y="-610.3" font-family="Helvetica,sans-Serif" font-size="14.00">value = [0.426, 0.574]</text>
<text text-anchor="middle" x="212" y="-595.3" font-family="Helvetica,sans-Serif" font-size="14.00">class = True</text>
</g>
<!-- 6&#45;&gt;7 -->
<g id="edge7" class="edge">
<title>6&#45;&gt;7</title>
<path fill="none" stroke="black" d="M338.69,-698.91C318.29,-686.6 295.95,-673.13 275.79,-660.97"/>
<polygon fill="black" stroke="black" points="277.37,-657.83 266.99,-655.67 273.75,-663.83 277.37,-657.83"/>
</g>
<!-- 16 -->
<g id="node9" class="node">
<title>16</title>
<polygon fill="#f9fcfe" stroke="black" points="494,-663 318,-663 318,-580 494,-580 494,-663"/>
<text text-anchor="middle" x="406" y="-647.8" font-family="Helvetica,sans-Serif" font-size="14.00">upf &lt;= 0.5</text>
<text text-anchor="middle" x="406" y="-632.8" font-family="Helvetica,sans-Serif" font-size="14.00">gini = 0.5</text>
<text text-anchor="middle" x="406" y="-617.8" font-family="Helvetica,sans-Serif" font-size="14.00">samples = 10.9%</text>
<text text-anchor="middle" x="406" y="-602.8" font-family="Helvetica,sans-Serif" font-size="14.00">value = [0.492, 0.508]</text>
<text text-anchor="middle" x="406" y="-587.8" font-family="Helvetica,sans-Serif" font-size="14.00">class = True</text>
</g>
<!-- 6&#45;&gt;16 -->
<g id="edge8" class="edge">
<title>6&#45;&gt;16</title>
<path fill="none" stroke="black" d="M406,-698.91C406,-690.65 406,-681.86 406,-673.3"/>
<polygon fill="black" stroke="black" points="409.5,-673.02 406,-663.02 402.5,-673.02 409.5,-673.02"/>
</g>
<!-- 17 -->
<g id="node10" class="node">
<title>17</title>
<polygon fill="#f5cfb4" stroke="black" points="313,-536.5 137,-536.5 137,-468.5 313,-468.5 313,-536.5"/>
<text text-anchor="middle" x="225" y="-521.3" font-family="Helvetica,sans-Serif" font-size="14.00">gini = 0.472</text>
<text text-anchor="middle" x="225" y="-506.3" font-family="Helvetica,sans-Serif" font-size="14.00">samples = 1.7%</text>
<text text-anchor="middle" x="225" y="-491.3" font-family="Helvetica,sans-Serif" font-size="14.00">value = [0.618, 0.382]</text>
<text text-anchor="middle" x="225" y="-476.3" font-family="Helvetica,sans-Serif" font-size="14.00">class = False</text>
</g>
<!-- 16&#45;&gt;17 -->
<g id="edge9" class="edge">
<title>16&#45;&gt;17</title>
<path fill="none" stroke="black" d="M343.2,-579.91C324.25,-567.66 303.51,-554.25 284.77,-542.13"/>
<polygon fill="black" stroke="black" points="286.61,-539.16 276.31,-536.67 282.81,-545.04 286.61,-539.16"/>
</g>
<!-- 18 -->
<g id="node11" class="node">
<title>18</title>
<polygon fill="#ebf5fc" stroke="black" points="507,-544 331,-544 331,-461 507,-461 507,-544"/>
<text text-anchor="middle" x="419" y="-528.8" font-family="Helvetica,sans-Serif" font-size="14.00">obesidade &lt;= 0.5</text>
<text text-anchor="middle" x="419" y="-513.8" font-family="Helvetica,sans-Serif" font-size="14.00">gini = 0.499</text>
<text text-anchor="middle" x="419" y="-498.8" font-family="Helvetica,sans-Serif" font-size="14.00">samples = 9.2%</text>
<text text-anchor="middle" x="419" y="-483.8" font-family="Helvetica,sans-Serif" font-size="14.00">value = [0.473, 0.527]</text>
<text text-anchor="middle" x="419" y="-468.8" font-family="Helvetica,sans-Serif" font-size="14.00">class = True</text>
</g>
<!-- 16&#45;&gt;18 -->
<g id="edge10" class="edge">
<title>16&#45;&gt;18</title>
<path fill="none" stroke="black" d="M410.51,-579.91C411.44,-571.56 412.43,-562.67 413.39,-554.02"/>
<polygon fill="black" stroke="black" points="416.87,-554.35 414.5,-544.02 409.91,-553.57 416.87,-554.35"/>
</g>
<!-- 19 -->
<g id="node12" class="node">
<title>19</title>
<polygon fill="#f7fbfe" stroke="black" points="361,-425 203,-425 203,-342 361,-342 361,-425"/>
<text text-anchor="middle" x="282" y="-409.8" font-family="Helvetica,sans-Serif" font-size="14.00">cons_alcool &lt;= 0.5</text>
<text text-anchor="middle" x="282" y="-394.8" font-family="Helvetica,sans-Serif" font-size="14.00">gini = 0.5</text>
<text text-anchor="middle" x="282" y="-379.8" font-family="Helvetica,sans-Serif" font-size="14.00">samples = 7.3%</text>
<text text-anchor="middle" x="282" y="-364.8" font-family="Helvetica,sans-Serif" font-size="14.00">value = [0.49, 0.51]</text>
<text text-anchor="middle" x="282" y="-349.8" font-family="Helvetica,sans-Serif" font-size="14.00">class = True</text>
</g>
<!-- 18&#45;&gt;19 -->
<g id="edge11" class="edge">
<title>18&#45;&gt;19</title>
<path fill="none" stroke="black" d="M371.47,-460.91C360.42,-451.47 348.56,-441.34 337.21,-431.65"/>
<polygon fill="black" stroke="black" points="339.32,-428.85 329.45,-425.02 334.78,-434.18 339.32,-428.85"/>
</g>
<!-- 26 -->
<g id="node19" class="node">
<title>26</title>
<polygon fill="#c5e3f7" stroke="black" points="555,-417.5 379,-417.5 379,-349.5 555,-349.5 555,-417.5"/>
<text text-anchor="middle" x="467" y="-402.3" font-family="Helvetica,sans-Serif" font-size="14.00">gini = 0.486</text>
<text text-anchor="middle" x="467" y="-387.3" font-family="Helvetica,sans-Serif" font-size="14.00">samples = 1.9%</text>
<text text-anchor="middle" x="467" y="-372.3" font-family="Helvetica,sans-Serif" font-size="14.00">value = [0.415, 0.585]</text>
<text text-anchor="middle" x="467" y="-357.3" font-family="Helvetica,sans-Serif" font-size="14.00">class = True</text>
</g>
<!-- 18&#45;&gt;26 -->
<g id="edge18" class="edge">
<title>18&#45;&gt;26</title>
<path fill="none" stroke="black" d="M435.65,-460.91C440.14,-449.98 445,-438.14 449.52,-427.11"/>
<polygon fill="black" stroke="black" points="452.84,-428.25 453.39,-417.67 446.36,-425.59 452.84,-428.25"/>
</g>
<!-- 20 -->
<g id="node13" class="node">
<title>20</title>
<polygon fill="#fefaf7" stroke="black" points="273,-306 97,-306 97,-223 273,-223 273,-306"/>
<text text-anchor="middle" x="185" y="-290.8" font-family="Helvetica,sans-Serif" font-size="14.00">escolaridade &lt;= 1.5</text>
<text text-anchor="middle" x="185" y="-275.8" font-family="Helvetica,sans-Serif" font-size="14.00">gini = 0.5</text>
<text text-anchor="middle" x="185" y="-260.8" font-family="Helvetica,sans-Serif" font-size="14.00">samples = 5.6%</text>
<text text-anchor="middle" x="185" y="-245.8" font-family="Helvetica,sans-Serif" font-size="14.00">value = [0.511, 0.489]</text>
<text text-anchor="middle" x="185" y="-230.8" font-family="Helvetica,sans-Serif" font-size="14.00">class = False</text>
</g>
<!-- 19&#45;&gt;20 -->
<g id="edge12" class="edge">
<title>19&#45;&gt;20</title>
<path fill="none" stroke="black" d="M248.35,-341.91C240.82,-332.83 232.77,-323.12 225.02,-313.77"/>
<polygon fill="black" stroke="black" points="227.67,-311.49 218.59,-306.02 222.28,-315.95 227.67,-311.49"/>
</g>
<!-- 25 -->
<g id="node18" class="node">
<title>25</title>
<polygon fill="#cee7f9" stroke="black" points="467,-298.5 291,-298.5 291,-230.5 467,-230.5 467,-298.5"/>
<text text-anchor="middle" x="379" y="-283.3" font-family="Helvetica,sans-Serif" font-size="14.00">gini = 0.49</text>
<text text-anchor="middle" x="379" y="-268.3" font-family="Helvetica,sans-Serif" font-size="14.00">samples = 1.7%</text>
<text text-anchor="middle" x="379" y="-253.3" font-family="Helvetica,sans-Serif" font-size="14.00">value = [0.429, 0.571]</text>
<text text-anchor="middle" x="379" y="-238.3" font-family="Helvetica,sans-Serif" font-size="14.00">class = True</text>
</g>
<!-- 19&#45;&gt;25 -->
<g id="edge17" class="edge">
<title>19&#45;&gt;25</title>
<path fill="none" stroke="black" d="M315.65,-341.91C325.17,-330.43 335.53,-317.94 345.06,-306.44"/>
<polygon fill="black" stroke="black" points="347.81,-308.6 351.5,-298.67 342.43,-304.13 347.81,-308.6"/>
</g>
<!-- 21 -->
<g id="node14" class="node">
<title>21</title>
<polygon fill="#f9e1d0" stroke="black" points="176,-179.5 0,-179.5 0,-111.5 176,-111.5 176,-179.5"/>
<text text-anchor="middle" x="88" y="-164.3" font-family="Helvetica,sans-Serif" font-size="14.00">gini = 0.491</text>
<text text-anchor="middle" x="88" y="-149.3" font-family="Helvetica,sans-Serif" font-size="14.00">samples = 1.9%</text>
<text text-anchor="middle" x="88" y="-134.3" font-family="Helvetica,sans-Serif" font-size="14.00">value = [0.567, 0.433]</text>
<text text-anchor="middle" x="88" y="-119.3" font-family="Helvetica,sans-Serif" font-size="14.00">class = False</text>
</g>
<!-- 20&#45;&gt;21 -->
<g id="edge13" class="edge">
<title>20&#45;&gt;21</title>
<path fill="none" stroke="black" d="M151.35,-222.91C141.83,-211.43 131.47,-198.94 121.94,-187.44"/>
<polygon fill="black" stroke="black" points="124.57,-185.13 115.5,-179.67 119.19,-189.6 124.57,-185.13"/>
</g>
<!-- 22 -->
<g id="node15" class="node">
<title>22</title>
<polygon fill="#f4f9fe" stroke="black" points="370,-187 194,-187 194,-104 370,-104 370,-187"/>
<text text-anchor="middle" x="282" y="-171.8" font-family="Helvetica,sans-Serif" font-size="14.00">upf &lt;= 2.5</text>
<text text-anchor="middle" x="282" y="-156.8" font-family="Helvetica,sans-Serif" font-size="14.00">gini = 0.5</text>
<text text-anchor="middle" x="282" y="-141.8" font-family="Helvetica,sans-Serif" font-size="14.00">samples = 3.7%</text>
<text text-anchor="middle" x="282" y="-126.8" font-family="Helvetica,sans-Serif" font-size="14.00">value = [0.485, 0.515]</text>
<text text-anchor="middle" x="282" y="-111.8" font-family="Helvetica,sans-Serif" font-size="14.00">class = True</text>
</g>
<!-- 20&#45;&gt;22 -->
<g id="edge14" class="edge">
<title>20&#45;&gt;22</title>
<path fill="none" stroke="black" d="M218.65,-222.91C226.18,-213.83 234.23,-204.12 241.98,-194.77"/>
<polygon fill="black" stroke="black" points="244.72,-196.95 248.41,-187.02 239.33,-192.49 244.72,-196.95"/>
</g>
<!-- 23 -->
<g id="node16" class="node">
<title>23</title>
<polygon fill="#fdf5ef" stroke="black" points="273,-68 97,-68 97,0 273,0 273,-68"/>
<text text-anchor="middle" x="185" y="-52.8" font-family="Helvetica,sans-Serif" font-size="14.00">gini = 0.499</text>
<text text-anchor="middle" x="185" y="-37.8" font-family="Helvetica,sans-Serif" font-size="14.00">samples = 1.7%</text>
<text text-anchor="middle" x="185" y="-22.8" font-family="Helvetica,sans-Serif" font-size="14.00">value = [0.521, 0.479]</text>
<text text-anchor="middle" x="185" y="-7.8" font-family="Helvetica,sans-Serif" font-size="14.00">class = False</text>
</g>
<!-- 22&#45;&gt;23 -->
<g id="edge15" class="edge">
<title>22&#45;&gt;23</title>
<path fill="none" stroke="black" d="M245.88,-103.73C237.8,-94.61 229.23,-84.93 221.15,-75.81"/>
<polygon fill="black" stroke="black" points="223.75,-73.46 214.5,-68.3 218.51,-78.11 223.75,-73.46"/>
</g>
<!-- 24 -->
<g id="node17" class="node">
<title>24</title>
<polygon fill="#dfeffb" stroke="black" points="467,-68 291,-68 291,0 467,0 467,-68"/>
<text text-anchor="middle" x="379" y="-52.8" font-family="Helvetica,sans-Serif" font-size="14.00">gini = 0.496</text>
<text text-anchor="middle" x="379" y="-37.8" font-family="Helvetica,sans-Serif" font-size="14.00">samples = 2.0%</text>
<text text-anchor="middle" x="379" y="-22.8" font-family="Helvetica,sans-Serif" font-size="14.00">value = [0.456, 0.544]</text>
<text text-anchor="middle" x="379" y="-7.8" font-family="Helvetica,sans-Serif" font-size="14.00">class = True</text>
</g>
<!-- 22&#45;&gt;24 -->
<g id="edge16" class="edge">
<title>22&#45;&gt;24</title>
<path fill="none" stroke="black" d="M318.12,-103.73C326.2,-94.61 334.77,-84.93 342.85,-75.81"/>
<polygon fill="black" stroke="black" points="345.49,-78.11 349.5,-68.3 340.25,-73.46 345.49,-78.11"/>
</g>
<!-- 28 -->
<g id="node21" class="node">
<title>28</title>
<polygon fill="#eef6fd" stroke="black" points="688,-655.5 512,-655.5 512,-587.5 688,-587.5 688,-655.5"/>
<text text-anchor="middle" x="600" y="-640.3" font-family="Helvetica,sans-Serif" font-size="14.00">gini = 0.499</text>
<text text-anchor="middle" x="600" y="-625.3" font-family="Helvetica,sans-Serif" font-size="14.00">samples = 3.0%</text>
<text text-anchor="middle" x="600" y="-610.3" font-family="Helvetica,sans-Serif" font-size="14.00">value = [0.477, 0.523]</text>
<text text-anchor="middle" x="600" y="-595.3" font-family="Helvetica,sans-Serif" font-size="14.00">class = True</text>
</g>
<!-- 27&#45;&gt;28 -->
<g id="edge20" class="edge">
<title>27&#45;&gt;28</title>
<path fill="none" stroke="black" d="M600,-698.91C600,-688.2 600,-676.62 600,-665.78"/>
<polygon fill="black" stroke="black" points="603.5,-665.67 600,-655.67 596.5,-665.67 603.5,-665.67"/>
</g>
<!-- 29 -->
<g id="node22" class="node">
<title>29</title>
<polygon fill="#fae9dc" stroke="black" points="882,-663 706,-663 706,-580 882,-580 882,-663"/>
<text text-anchor="middle" x="794" y="-647.8" font-family="Helvetica,sans-Serif" font-size="14.00">exerc_fisico &lt;= 0.5</text>
<text text-anchor="middle" x="794" y="-632.8" font-family="Helvetica,sans-Serif" font-size="14.00">gini = 0.495</text>
<text text-anchor="middle" x="794" y="-617.8" font-family="Helvetica,sans-Serif" font-size="14.00">samples = 9.8%</text>
<text text-anchor="middle" x="794" y="-602.8" font-family="Helvetica,sans-Serif" font-size="14.00">value = [0.549, 0.451]</text>
<text text-anchor="middle" x="794" y="-587.8" font-family="Helvetica,sans-Serif" font-size="14.00">class = False</text>
</g>
<!-- 27&#45;&gt;29 -->
<g id="edge21" class="edge">
<title>27&#45;&gt;29</title>
<path fill="none" stroke="black" d="M667.31,-698.91C683.71,-689.02 701.36,-678.37 718.13,-668.25"/>
<polygon fill="black" stroke="black" points="720.06,-671.18 726.81,-663.02 716.44,-665.19 720.06,-671.18"/>
</g>
<!-- 30 -->
<g id="node23" class="node">
<title>30</title>
<polygon fill="#fefcfa" stroke="black" points="858,-544 682,-544 682,-461 858,-461 858,-544"/>
<text text-anchor="middle" x="770" y="-528.8" font-family="Helvetica,sans-Serif" font-size="14.00">escolaridade &lt;= 2.5</text>
<text text-anchor="middle" x="770" y="-513.8" font-family="Helvetica,sans-Serif" font-size="14.00">gini = 0.5</text>
<text text-anchor="middle" x="770" y="-498.8" font-family="Helvetica,sans-Serif" font-size="14.00">samples = 4.4%</text>
<text text-anchor="middle" x="770" y="-483.8" font-family="Helvetica,sans-Serif" font-size="14.00">value = [0.506, 0.494]</text>
<text text-anchor="middle" x="770" y="-468.8" font-family="Helvetica,sans-Serif" font-size="14.00">class = False</text>
</g>
<!-- 29&#45;&gt;30 -->
<g id="edge22" class="edge">
<title>29&#45;&gt;30</title>
<path fill="none" stroke="black" d="M785.67,-579.91C783.96,-571.56 782.14,-562.67 780.36,-554.02"/>
<polygon fill="black" stroke="black" points="783.75,-553.11 778.31,-544.02 776.89,-554.52 783.75,-553.11"/>
</g>
<!-- 33 -->
<g id="node26" class="node">
<title>33</title>
<polygon fill="#f7d9c4" stroke="black" points="1052,-536.5 876,-536.5 876,-468.5 1052,-468.5 1052,-536.5"/>
<text text-anchor="middle" x="964" y="-521.3" font-family="Helvetica,sans-Serif" font-size="14.00">gini = 0.484</text>
<text text-anchor="middle" x="964" y="-506.3" font-family="Helvetica,sans-Serif" font-size="14.00">samples = 5.4%</text>
<text text-anchor="middle" x="964" y="-491.3" font-family="Helvetica,sans-Serif" font-size="14.00">value = [0.588, 0.412]</text>
<text text-anchor="middle" x="964" y="-476.3" font-family="Helvetica,sans-Serif" font-size="14.00">class = False</text>
</g>
<!-- 29&#45;&gt;33 -->
<g id="edge25" class="edge">
<title>29&#45;&gt;33</title>
<path fill="none" stroke="black" d="M852.98,-579.91C870.62,-567.77 889.91,-554.49 907.39,-542.46"/>
<polygon fill="black" stroke="black" points="909.56,-545.22 915.81,-536.67 905.59,-539.45 909.56,-545.22"/>
</g>
<!-- 31 -->
<g id="node24" class="node">
<title>31</title>
<polygon fill="#fdf3ed" stroke="black" points="846,-417.5 670,-417.5 670,-349.5 846,-349.5 846,-417.5"/>
<text text-anchor="middle" x="758" y="-402.3" font-family="Helvetica,sans-Serif" font-size="14.00">gini = 0.499</text>
<text text-anchor="middle" x="758" y="-387.3" font-family="Helvetica,sans-Serif" font-size="14.00">samples = 2.7%</text>
<text text-anchor="middle" x="758" y="-372.3" font-family="Helvetica,sans-Serif" font-size="14.00">value = [0.524, 0.476]</text>
<text text-anchor="middle" x="758" y="-357.3" font-family="Helvetica,sans-Serif" font-size="14.00">class = False</text>
</g>
<!-- 30&#45;&gt;31 -->
<g id="edge23" class="edge">
<title>30&#45;&gt;31</title>
<path fill="none" stroke="black" d="M765.84,-460.91C764.74,-450.2 763.55,-438.62 762.44,-427.78"/>
<polygon fill="black" stroke="black" points="765.9,-427.26 761.4,-417.67 758.94,-427.97 765.9,-427.26"/>
</g>
<!-- 32 -->
<g id="node25" class="node">
<title>32</title>
<polygon fill="#eff7fd" stroke="black" points="1040,-417.5 864,-417.5 864,-349.5 1040,-349.5 1040,-417.5"/>
<text text-anchor="middle" x="952" y="-402.3" font-family="Helvetica,sans-Serif" font-size="14.00">gini = 0.499</text>
<text text-anchor="middle" x="952" y="-387.3" font-family="Helvetica,sans-Serif" font-size="14.00">samples = 1.7%</text>
<text text-anchor="middle" x="952" y="-372.3" font-family="Helvetica,sans-Serif" font-size="14.00">value = [0.479, 0.521]</text>
<text text-anchor="middle" x="952" y="-357.3" font-family="Helvetica,sans-Serif" font-size="14.00">class = True</text>
</g>
<!-- 30&#45;&gt;32 -->
<g id="edge24" class="edge">
<title>30&#45;&gt;32</title>
<path fill="none" stroke="black" d="M833.14,-460.91C852.2,-448.66 873.05,-435.25 891.9,-423.13"/>
<polygon fill="black" stroke="black" points="893.89,-426.02 900.41,-417.67 890.1,-420.13 893.89,-426.02"/>
</g>
<!-- 59 -->
<g id="node32" class="node">
<title>59</title>
<polygon fill="#f0b890" stroke="black" points="1426,-1258 1250,-1258 1250,-1175 1426,-1175 1426,-1258"/>
<text text-anchor="middle" x="1338" y="-1242.8" font-family="Helvetica,sans-Serif" font-size="14.00">estado_civil &lt;= 0.5</text>
<text text-anchor="middle" x="1338" y="-1227.8" font-family="Helvetica,sans-Serif" font-size="14.00">gini = 0.423</text>
<text text-anchor="middle" x="1338" y="-1212.8" font-family="Helvetica,sans-Serif" font-size="14.00">samples = 41.6%</text>
<text text-anchor="middle" x="1338" y="-1197.8" font-family="Helvetica,sans-Serif" font-size="14.00">value = [0.696, 0.304]</text>
<text text-anchor="middle" x="1338" y="-1182.8" font-family="Helvetica,sans-Serif" font-size="14.00">class = False</text>
</g>
<!-- 58&#45;&gt;59 -->
<g id="edge31" class="edge">
<title>58&#45;&gt;59</title>
<path fill="none" stroke="black" d="M1338,-1293.91C1338,-1285.65 1338,-1276.86 1338,-1268.3"/>
<polygon fill="black" stroke="black" points="1341.5,-1268.02 1338,-1258.02 1334.5,-1268.02 1341.5,-1268.02"/>
</g>
<!-- 106 -->
<g id="node39" class="node">
<title>106</title>
<polygon fill="#fefbf9" stroke="black" points="1620,-1258 1444,-1258 1444,-1175 1620,-1175 1620,-1258"/>
<text text-anchor="middle" x="1532" y="-1242.8" font-family="Helvetica,sans-Serif" font-size="14.00">estado_civil &lt;= 0.5</text>
<text text-anchor="middle" x="1532" y="-1227.8" font-family="Helvetica,sans-Serif" font-size="14.00">gini = 0.5</text>
<text text-anchor="middle" x="1532" y="-1212.8" font-family="Helvetica,sans-Serif" font-size="14.00">samples = 6.8%</text>
<text text-anchor="middle" x="1532" y="-1197.8" font-family="Helvetica,sans-Serif" font-size="14.00">value = [0.508, 0.492]</text>
<text text-anchor="middle" x="1532" y="-1182.8" font-family="Helvetica,sans-Serif" font-size="14.00">class = False</text>
</g>
<!-- 58&#45;&gt;106 -->
<g id="edge38" class="edge">
<title>58&#45;&gt;106</title>
<path fill="none" stroke="black" d="M1405.31,-1293.91C1421.71,-1284.02 1439.36,-1273.37 1456.13,-1263.25"/>
<polygon fill="black" stroke="black" points="1458.06,-1266.18 1464.81,-1258.02 1454.44,-1260.19 1458.06,-1266.18"/>
</g>
<!-- 60 -->
<g id="node33" class="node">
<title>60</title>
<polygon fill="#f5ccaf" stroke="black" points="1232,-1139 1056,-1139 1056,-1056 1232,-1056 1232,-1139"/>
<text text-anchor="middle" x="1144" y="-1123.8" font-family="Helvetica,sans-Serif" font-size="14.00">tabagismo &lt;= 0.5</text>
<text text-anchor="middle" x="1144" y="-1108.8" font-family="Helvetica,sans-Serif" font-size="14.00">gini = 0.468</text>
<text text-anchor="middle" x="1144" y="-1093.8" font-family="Helvetica,sans-Serif" font-size="14.00">samples = 15.3%</text>
<text text-anchor="middle" x="1144" y="-1078.8" font-family="Helvetica,sans-Serif" font-size="14.00">value = [0.626, 0.374]</text>
<text text-anchor="middle" x="1144" y="-1063.8" font-family="Helvetica,sans-Serif" font-size="14.00">class = False</text>
</g>
<!-- 59&#45;&gt;60 -->
<g id="edge32" class="edge">
<title>59&#45;&gt;60</title>
<path fill="none" stroke="black" d="M1270.69,-1174.91C1254.29,-1165.02 1236.64,-1154.37 1219.87,-1144.25"/>
<polygon fill="black" stroke="black" points="1221.56,-1141.19 1211.19,-1139.02 1217.94,-1147.18 1221.56,-1141.19"/>
</g>
<!-- 75 -->
<g id="node38" class="node">
<title>75</title>
<polygon fill="#eead7e" stroke="black" points="1426,-1131.5 1250,-1131.5 1250,-1063.5 1426,-1063.5 1426,-1131.5"/>
<text text-anchor="middle" x="1338" y="-1116.3" font-family="Helvetica,sans-Serif" font-size="14.00">gini = 0.383</text>
<text text-anchor="middle" x="1338" y="-1101.3" font-family="Helvetica,sans-Serif" font-size="14.00">samples = 26.3%</text>
<text text-anchor="middle" x="1338" y="-1086.3" font-family="Helvetica,sans-Serif" font-size="14.00">value = [0.742, 0.258]</text>
<text text-anchor="middle" x="1338" y="-1071.3" font-family="Helvetica,sans-Serif" font-size="14.00">class = False</text>
</g>
<!-- 59&#45;&gt;75 -->
<g id="edge37" class="edge">
<title>59&#45;&gt;75</title>
<path fill="none" stroke="black" d="M1338,-1174.91C1338,-1164.2 1338,-1152.62 1338,-1141.78"/>
<polygon fill="black" stroke="black" points="1341.5,-1141.67 1338,-1131.67 1334.5,-1141.67 1341.5,-1141.67"/>
</g>
<!-- 61 -->
<g id="node34" class="node">
<title>61</title>
<polygon fill="#f3c3a0" stroke="black" points="1184,-1012.5 1008,-1012.5 1008,-944.5 1184,-944.5 1184,-1012.5"/>
<text text-anchor="middle" x="1096" y="-997.3" font-family="Helvetica,sans-Serif" font-size="14.00">gini = 0.451</text>
<text text-anchor="middle" x="1096" y="-982.3" font-family="Helvetica,sans-Serif" font-size="14.00">samples = 12.1%</text>
<text text-anchor="middle" x="1096" y="-967.3" font-family="Helvetica,sans-Serif" font-size="14.00">value = [0.657, 0.343]</text>
<text text-anchor="middle" x="1096" y="-952.3" font-family="Helvetica,sans-Serif" font-size="14.00">class = False</text>
</g>
<!-- 60&#45;&gt;61 -->
<g id="edge33" class="edge">
<title>60&#45;&gt;61</title>
<path fill="none" stroke="black" d="M1127.35,-1055.91C1122.86,-1044.98 1118,-1033.14 1113.48,-1022.11"/>
<polygon fill="black" stroke="black" points="1116.64,-1020.59 1109.61,-1012.67 1110.16,-1023.25 1116.64,-1020.59"/>
</g>
<!-- 72 -->
<g id="node35" class="node">
<title>72</title>
<polygon fill="#fcf1e9" stroke="black" points="1378,-1020 1202,-1020 1202,-937 1378,-937 1378,-1020"/>
<text text-anchor="middle" x="1290" y="-1004.8" font-family="Helvetica,sans-Serif" font-size="14.00">upf &lt;= 1.5</text>
<text text-anchor="middle" x="1290" y="-989.8" font-family="Helvetica,sans-Serif" font-size="14.00">gini = 0.498</text>
<text text-anchor="middle" x="1290" y="-974.8" font-family="Helvetica,sans-Serif" font-size="14.00">samples = 3.2%</text>
<text text-anchor="middle" x="1290" y="-959.8" font-family="Helvetica,sans-Serif" font-size="14.00">value = [0.529, 0.471]</text>
<text text-anchor="middle" x="1290" y="-944.8" font-family="Helvetica,sans-Serif" font-size="14.00">class = False</text>
</g>
<!-- 60&#45;&gt;72 -->
<g id="edge34" class="edge">
<title>60&#45;&gt;72</title>
<path fill="none" stroke="black" d="M1194.65,-1055.91C1206.54,-1046.38 1219.31,-1036.15 1231.51,-1026.37"/>
<polygon fill="black" stroke="black" points="1233.82,-1029.01 1239.44,-1020.02 1229.44,-1023.54 1233.82,-1029.01"/>
</g>
<!-- 73 -->
<g id="node36" class="node">
<title>73</title>
<polygon fill="#f5cdb0" stroke="black" points="1281,-893.5 1105,-893.5 1105,-825.5 1281,-825.5 1281,-893.5"/>
<text text-anchor="middle" x="1193" y="-878.3" font-family="Helvetica,sans-Serif" font-size="14.00">gini = 0.469</text>
<text text-anchor="middle" x="1193" y="-863.3" font-family="Helvetica,sans-Serif" font-size="14.00">samples = 1.2%</text>
<text text-anchor="middle" x="1193" y="-848.3" font-family="Helvetica,sans-Serif" font-size="14.00">value = [0.625, 0.375]</text>
<text text-anchor="middle" x="1193" y="-833.3" font-family="Helvetica,sans-Serif" font-size="14.00">class = False</text>
</g>
<!-- 72&#45;&gt;73 -->
<g id="edge35" class="edge">
<title>72&#45;&gt;73</title>
<path fill="none" stroke="black" d="M1256.35,-936.91C1246.83,-925.43 1236.47,-912.94 1226.94,-901.44"/>
<polygon fill="black" stroke="black" points="1229.57,-899.13 1220.5,-893.67 1224.19,-903.6 1229.57,-899.13"/>
</g>
<!-- 74 -->
<g id="node37" class="node">
<title>74</title>
<polygon fill="#f3f9fd" stroke="black" points="1475,-893.5 1299,-893.5 1299,-825.5 1475,-825.5 1475,-893.5"/>
<text text-anchor="middle" x="1387" y="-878.3" font-family="Helvetica,sans-Serif" font-size="14.00">gini = 0.5</text>
<text text-anchor="middle" x="1387" y="-863.3" font-family="Helvetica,sans-Serif" font-size="14.00">samples = 2.1%</text>
<text text-anchor="middle" x="1387" y="-848.3" font-family="Helvetica,sans-Serif" font-size="14.00">value = [0.485, 0.515]</text>
<text text-anchor="middle" x="1387" y="-833.3" font-family="Helvetica,sans-Serif" font-size="14.00">class = True</text>
</g>
<!-- 72&#45;&gt;74 -->
<g id="edge36" class="edge">
<title>72&#45;&gt;74</title>
<path fill="none" stroke="black" d="M1323.65,-936.91C1333.17,-925.43 1343.53,-912.94 1353.06,-901.44"/>
<polygon fill="black" stroke="black" points="1355.81,-903.6 1359.5,-893.67 1350.43,-899.13 1355.81,-903.6"/>
</g>
<!-- 107 -->
<g id="node40" class="node">
<title>107</title>
<polygon fill="#baddf6" stroke="black" points="1620,-1131.5 1444,-1131.5 1444,-1063.5 1620,-1063.5 1620,-1131.5"/>
<text text-anchor="middle" x="1532" y="-1116.3" font-family="Helvetica,sans-Serif" font-size="14.00">gini = 0.478</text>
<text text-anchor="middle" x="1532" y="-1101.3" font-family="Helvetica,sans-Serif" font-size="14.00">samples = 1.9%</text>
<text text-anchor="middle" x="1532" y="-1086.3" font-family="Helvetica,sans-Serif" font-size="14.00">value = [0.395, 0.605]</text>
<text text-anchor="middle" x="1532" y="-1071.3" font-family="Helvetica,sans-Serif" font-size="14.00">class = True</text>
</g>
<!-- 106&#45;&gt;107 -->
<g id="edge39" class="edge">
<title>106&#45;&gt;107</title>
<path fill="none" stroke="black" d="M1532,-1174.91C1532,-1164.2 1532,-1152.62 1532,-1141.78"/>
<polygon fill="black" stroke="black" points="1535.5,-1141.67 1532,-1131.67 1528.5,-1141.67 1535.5,-1141.67"/>
</g>
<!-- 108 -->
<g id="node41" class="node">
<title>108</title>
<polygon fill="#f9e2d1" stroke="black" points="1845.5,-1139 1638.5,-1139 1638.5,-1056 1845.5,-1056 1845.5,-1139"/>
<text text-anchor="middle" x="1742" y="-1123.8" font-family="Helvetica,sans-Serif" font-size="14.00">hipercolesterolemia &lt;= 0.5</text>
<text text-anchor="middle" x="1742" y="-1108.8" font-family="Helvetica,sans-Serif" font-size="14.00">gini = 0.491</text>
<text text-anchor="middle" x="1742" y="-1093.8" font-family="Helvetica,sans-Serif" font-size="14.00">samples = 4.9%</text>
<text text-anchor="middle" x="1742" y="-1078.8" font-family="Helvetica,sans-Serif" font-size="14.00">value = [0.566, 0.434]</text>
<text text-anchor="middle" x="1742" y="-1063.8" font-family="Helvetica,sans-Serif" font-size="14.00">class = False</text>
</g>
<!-- 106&#45;&gt;108 -->
<g id="edge40" class="edge">
<title>106&#45;&gt;108</title>
<path fill="none" stroke="black" d="M1604.86,-1174.91C1622.78,-1164.92 1642.08,-1154.17 1660.38,-1143.98"/>
<polygon fill="black" stroke="black" points="1662.24,-1146.95 1669.27,-1139.02 1658.83,-1140.83 1662.24,-1146.95"/>
</g>
<!-- 109 -->
<g id="node42" class="node">
<title>109</title>
<polygon fill="#f5cdb0" stroke="black" points="1733,-1012.5 1557,-1012.5 1557,-944.5 1733,-944.5 1733,-1012.5"/>
<text text-anchor="middle" x="1645" y="-997.3" font-family="Helvetica,sans-Serif" font-size="14.00">gini = 0.469</text>
<text text-anchor="middle" x="1645" y="-982.3" font-family="Helvetica,sans-Serif" font-size="14.00">samples = 3.6%</text>
<text text-anchor="middle" x="1645" y="-967.3" font-family="Helvetica,sans-Serif" font-size="14.00">value = [0.625, 0.375]</text>
<text text-anchor="middle" x="1645" y="-952.3" font-family="Helvetica,sans-Serif" font-size="14.00">class = False</text>
</g>
<!-- 108&#45;&gt;109 -->
<g id="edge41" class="edge">
<title>108&#45;&gt;109</title>
<path fill="none" stroke="black" d="M1708.35,-1055.91C1698.83,-1044.43 1688.47,-1031.94 1678.94,-1020.44"/>
<polygon fill="black" stroke="black" points="1681.57,-1018.13 1672.5,-1012.67 1676.19,-1022.6 1681.57,-1018.13"/>
</g>
<!-- 112 -->
<g id="node43" class="node">
<title>112</title>
<polygon fill="#d3e9f9" stroke="black" points="1927,-1012.5 1751,-1012.5 1751,-944.5 1927,-944.5 1927,-1012.5"/>
<text text-anchor="middle" x="1839" y="-997.3" font-family="Helvetica,sans-Serif" font-size="14.00">gini = 0.492</text>
<text text-anchor="middle" x="1839" y="-982.3" font-family="Helvetica,sans-Serif" font-size="14.00">samples = 1.2%</text>
<text text-anchor="middle" x="1839" y="-967.3" font-family="Helvetica,sans-Serif" font-size="14.00">value = [0.437, 0.563]</text>
<text text-anchor="middle" x="1839" y="-952.3" font-family="Helvetica,sans-Serif" font-size="14.00">class = True</text>
</g>
<!-- 108&#45;&gt;112 -->
<g id="edge42" class="edge">
<title>108&#45;&gt;112</title>
<path fill="none" stroke="black" d="M1775.65,-1055.91C1785.17,-1044.43 1795.53,-1031.94 1805.06,-1020.44"/>
<polygon fill="black" stroke="black" points="1807.81,-1022.6 1811.5,-1012.67 1802.43,-1018.13 1807.81,-1022.6"/>
</g>
<!-- \n -->
<g id="node44" class="node">
<title>\n</title>
<polygon fill="black" stroke="black" points="1387,-1472.5 1333,-1472.5 1333,-1436.5 1387,-1436.5 1387,-1472.5"/>
</g>
</g>
</svg>
